<svg xmlns:xlink="http://www.w3.org/1999/xlink" id="Layer_1" xmlns="http://www.w3.org/2000/svg" viewBox="0 0 900 900" style="enable-background:new 0 0 900 900"><style>.st1{fill:#fff}.st2{fill:none;stroke:#000;stroke-width:2;stroke-linecap:square;stroke-miterlimit:1}</style><defs><path id="SVGID_1_" d="M498 248H227c-1.1 0-2-.9-2-2V100c0-1.1.9-2 2-2h271c1.1 0 2 .9 2 2v146c0 1.1-.9 2-2 2z"/></defs><clipPath id="SVGID_2_"><use xlink:href="#SVGID_1_" style="overflow:visible"/></clipPath><defs><path id="SVGID_3_" d="M498 248H227c-1.1 0-2-.9-2-2V100c0-1.1.9-2 2-2h271c1.1 0 2 .9 2 2v146c0 1.1-.9 2-2 2z"/></defs><use xlink:href="#SVGID_3_" style="overflow:visible;fill:#4caf50"/><clipPath id="SVGID_4_"><use xlink:href="#SVGID_3_" style="overflow:visible"/></clipPath><g style="clip-path:url(#SVGID_4_)"><path class="st1" d="M333.8 143h-8l-1.8 5h-2.6l7.3-19.2h2.2l7.3 19.2h-2.6l-1.8-5zm-7.3-2.1h6.5l-3.3-9-3.2 9zm4.5-17.2h3l-3.5 3.9h-2l2.5-3.9zM343.1 148h-2.4v-20.3h2.4V148zM349.6 148h-2.4v-20.3h2.4V148zM362.3 148c-.1-.3-.3-.8-.3-1.5-1.1 1.2-2.5 1.8-4.1 1.8-1.4 0-2.6-.4-3.5-1.2-.9-.8-1.4-1.8-1.4-3 0-1.5.6-2.6 1.7-3.5 1.1-.8 2.7-1.2 4.8-1.2h2.4v-1.1c0-.9-.3-1.5-.8-2s-1.3-.8-2.3-.8c-.9 0-1.6.2-2.2.7s-.9 1-.9 1.6h-2.5c0-.7.3-1.4.8-2.1.5-.7 1.2-1.2 2.1-1.6.9-.4 1.8-.6 2.9-.6 1.6 0 2.9.4 3.9 1.2.9.8 1.4 2 1.5 3.4v6.6c0 1.3.2 2.4.5 3.1v.2h-2.6zm-4-1.8c.8 0 1.5-.2 2.2-.6s1.2-.9 1.5-1.5v-2.9h-1.9c-3 0-4.5.9-4.5 2.6 0 .8.3 1.4.8 1.8s1.1.6 1.9.6zM371.5 130.3v3.5h2.7v1.9h-2.7v8.9c0 .6.1 1 .4 1.3.2.3.6.4 1.2.4.3 0 .7-.1 1.2-.2v2c-.6.2-1.3.3-1.9.3-1.1 0-1.9-.3-2.5-1s-.8-1.6-.8-2.8v-8.8h-2.6v-1.9h2.6v-3.5h2.4zM376.1 140.8c0-1.4.3-2.7.8-3.8s1.3-2 2.3-2.6 2.1-.9 3.4-.9c1.9 0 3.5.7 4.7 2 1.2 1.3 1.8 3.1 1.8 5.4v.2c0 1.4-.3 2.6-.8 3.7s-1.3 2-2.3 2.6c-1 .6-2.1.9-3.4.9-1.9 0-3.5-.7-4.7-2-1.2-1.3-1.8-3.1-1.8-5.3v-.2zm2.5.2c0 1.6.4 2.9 1.1 3.8.7 1 1.7 1.4 2.9 1.4s2.2-.5 3-1.5 1.1-2.3 1.1-4.1c0-1.6-.4-2.8-1.1-3.8-.7-1-1.7-1.5-3-1.5-1.2 0-2.2.5-2.9 1.4s-1.1 2.6-1.1 4.3zM396.2 141.4l-1.5 1.6v5h-2.4v-20.3h2.4V140l1.3-1.6 4.4-4.7h3l-5.6 6 6.2 8.3h-2.9l-4.9-6.6z"/></g><defs><path id="SVGID_5_" d="M498 248H227c-1.1 0-2-.9-2-2V100c0-1.1.9-2 2-2h271c1.1 0 2 .9 2 2v146c0 1.1-.9 2-2 2z"/></defs><clipPath id="SVGID_6_"><use xlink:href="#SVGID_5_" style="overflow:visible"/></clipPath><path class="st2" d="M362.5 262.9v60.6"/><path d="M352.5 265.8l10-17.3 10 17.3z"/><path class="st2" d="M362 323h175M362 323H187M187 323v50M537 323v50"/><defs><path id="SVGID_7_" d="M323 523H52c-1.1 0-2-.9-2-2V375c0-1.1.9-2 2-2h271c1.1 0 2 .9 2 2v146c0 1.1-.9 2-2 2z"/></defs><clipPath id="SVGID_8_"><use xlink:href="#SVGID_7_" style="overflow:visible"/></clipPath><defs><path id="SVGID_9_" d="M323 523H52c-1.1 0-2-.9-2-2V375c0-1.1.9-2 2-2h271c1.1 0 2 .9 2 2v146c0 1.1-.9 2-2 2z"/></defs><use xlink:href="#SVGID_9_" style="overflow:visible;fill:#4caf50"/><clipPath id="SVGID_10_"><use xlink:href="#SVGID_9_" style="overflow:visible"/></clipPath><g style="clip-path:url(#SVGID_10_)"><path class="st1" d="M147.9 414.9h-4.5v7.8h-2.5v-19.2h6.4c2.2 0 3.8.5 5 1.5 1.2 1 1.7 2.4 1.7 4.3 0 1.2-.3 2.2-1 3.1-.6.9-1.5 1.6-2.7 2l4.5 8.1v.2h-2.7l-4.2-7.8zm-4.5-2.1h3.9c1.3 0 2.3-.3 3-1 .7-.7 1.1-1.5 1.1-2.6 0-1.2-.4-2.1-1.1-2.7-.7-.6-1.7-1-3.1-1h-3.9v7.3zM156.5 415.4c0-1.4.3-2.7.8-3.8s1.3-2 2.3-2.6 2.1-.9 3.4-.9c1.9 0 3.5.7 4.7 2 1.2 1.3 1.8 3.1 1.8 5.4v.2c0 1.4-.3 2.6-.8 3.7s-1.3 2-2.3 2.6c-1 .6-2.1.9-3.4.9-1.9 0-3.5-.7-4.7-2-1.2-1.3-1.8-3.1-1.8-5.3v-.2zm2.4.3c0 1.6.4 2.9 1.1 3.8.7 1 1.7 1.4 2.9 1.4s2.2-.5 3-1.5 1.1-2.3 1.1-4.1c0-1.6-.4-2.8-1.1-3.8-.7-1-1.7-1.5-3-1.5-1.2 0-2.2.5-2.9 1.4s-1.1 2.5-1.1 4.3zM177 419.4l3.5-11h2.5l-5.1 14.3H176l-5.2-14.3h2.5l3.7 11zM194 422.7c-.1-.3-.3-.8-.3-1.5-1.1 1.2-2.5 1.8-4.1 1.8-1.4 0-2.6-.4-3.5-1.2-.9-.8-1.4-1.8-1.4-3 0-1.5.6-2.6 1.7-3.5 1.1-.8 2.7-1.2 4.8-1.2h2.4V413c0-.9-.3-1.5-.8-2s-1.3-.8-2.3-.8c-.9 0-1.6.2-2.2.7s-.9 1-.9 1.6h-2.5c0-.7.3-1.4.8-2.1.5-.7 1.2-1.2 2.1-1.6.9-.4 1.8-.6 2.9-.6 1.6 0 2.9.4 3.9 1.2.9.8 1.4 2 1.5 3.4v6.6c0 1.3.2 2.4.5 3.1v.2H194zm-4-1.9c.8 0 1.5-.2 2.2-.6s1.2-.9 1.5-1.5v-2.9h-1.9c-3 0-4.5.9-4.5 2.6 0 .8.3 1.4.8 1.8s1.1.6 1.9.6zM206.8 410.6c-.4-.1-.8-.1-1.2-.1-1.6 0-2.7.7-3.3 2v10.1h-2.4v-14.3h2.4v1.6c.8-1.3 1.9-1.9 3.4-1.9.5 0 .8.1 1.1.2v2.4zM208.1 415.4c0-1.4.3-2.7.8-3.8s1.3-2 2.3-2.6 2.1-.9 3.4-.9c1.9 0 3.5.7 4.7 2 1.2 1.3 1.8 3.1 1.8 5.4v.2c0 1.4-.3 2.6-.8 3.7s-1.3 2-2.3 2.6c-1 .6-2.1.9-3.4.9-1.9 0-3.5-.7-4.7-2-1.2-1.3-1.8-3.1-1.8-5.3v-.2zm2.5.3c0 1.6.4 2.9 1.1 3.8.7 1 1.7 1.4 2.9 1.4s2.2-.5 3-1.5 1.1-2.3 1.1-4.1c0-1.6-.4-2.8-1.1-3.8-.7-1-1.7-1.5-3-1.5-1.2 0-2.2.5-2.9 1.4s-1.1 2.5-1.1 4.3zM228.1 416.1l-1.5 1.6v5h-2.4v-20.3h2.4v12.2l1.3-1.6 4.4-4.7h3l-5.6 6 6.2 8.3H233l-4.9-6.5z"/></g><defs><path id="SVGID_11_" d="M323 523H52c-1.1 0-2-.9-2-2V375c0-1.1.9-2 2-2h271c1.1 0 2 .9 2 2v146c0 1.1-.9 2-2 2z"/></defs><clipPath id="SVGID_12_"><use xlink:href="#SVGID_11_" style="overflow:visible"/></clipPath><defs><path id="SVGID_13_" d="M673 523H402c-1.1 0-2-.9-2-2V375c0-1.1.9-2 2-2h271c1.1 0 2 .9 2 2v146c0 1.1-.9 2-2 2z"/></defs><clipPath id="SVGID_14_"><use xlink:href="#SVGID_13_" style="overflow:visible"/></clipPath><defs><path id="SVGID_15_" d="M673 523H402c-1.1 0-2-.9-2-2V375c0-1.1.9-2 2-2h271c1.1 0 2 .9 2 2v146c0 1.1-.9 2-2 2z"/></defs><use xlink:href="#SVGID_15_" style="overflow:visible;fill:#4caf50"/><clipPath id="SVGID_16_"><use xlink:href="#SVGID_15_" style="overflow:visible"/></clipPath><g style="clip-path:url(#SVGID_16_)"><path class="st1" d="M486.1 420.5c-.7.9-1.6 1.6-2.7 2.1-1.2.5-2.5.7-4.1.7-1.6 0-3-.4-4.2-1.1s-2.2-1.8-2.8-3.1c-.7-1.4-1-2.9-1-4.7v-1.7c0-2.9.7-5.1 2-6.7 1.3-1.6 3.2-2.4 5.7-2.4 2 0 3.6.5 4.8 1.5s2 2.5 2.2 4.4h-2.5c-.5-2.5-2-3.8-4.5-3.8-1.7 0-3 .6-3.9 1.8-.9 1.2-1.3 2.9-1.3 5.2v1.6c0 2.2.5 3.9 1.5 5.1 1 1.3 2.3 1.9 4 1.9.9 0 1.8-.1 2.5-.3.7-.2 1.3-.6 1.8-1.1v-4.3h-4.4v-2.1h7v7zM495.8 423.3c-1.9 0-3.5-.6-4.7-1.9-1.2-1.3-1.8-3-1.8-5.1v-.4c0-1.4.3-2.7.8-3.8.5-1.1 1.3-2 2.3-2.6 1-.6 2-.9 3.2-.9 1.9 0 3.3.6 4.3 1.8s1.5 3 1.5 5.2v1h-9.7c0 1.4.4 2.5 1.2 3.4.8.9 1.8 1.3 3 1.3.9 0 1.6-.2 2.2-.5.6-.4 1.1-.8 1.6-1.4l1.5 1.2c-1.2 1.7-3 2.7-5.4 2.7zm-.3-12.8c-1 0-1.8.4-2.5 1.1-.7.7-1.1 1.7-1.2 3h7.1v-.2c-.1-1.2-.4-2.2-1-2.9-.5-.7-1.3-1-2.4-1zM511.1 410.9c-.4-.1-.8-.1-1.2-.1-1.6 0-2.7.7-3.3 2V423h-2.4v-14.3h2.4v1.6c.8-1.3 1.9-1.9 3.4-1.9.5 0 .8.1 1.1.2v2.3zM513.4 405c0-.4.1-.7.4-1 .2-.3.6-.4 1.1-.4s.8.1 1.1.4.4.6.4 1-.1.7-.4 1-.6.4-1.1.4-.8-.1-1.1-.4c-.3-.3-.4-.7-.4-1zm2.6 18h-2.4v-14.3h2.4V423zM522.2 408.7l.1 1.8c1.1-1.4 2.5-2.1 4.3-2.1 3 0 4.5 1.7 4.6 5.1v9.4h-2.4v-9.4c0-1-.2-1.8-.7-2.3-.5-.5-1.2-.7-2.2-.7-.8 0-1.5.2-2.1.6s-1.1 1-1.4 1.7V423H520v-14.3h2.2zM540.5 421.3c.9 0 1.6-.3 2.3-.8s1-1.2 1.1-2h2.3c0 .8-.3 1.6-.8 2.3s-1.2 1.3-2.1 1.8c-.9.4-1.8.7-2.7.7-1.9 0-3.5-.6-4.6-1.9-1.1-1.3-1.7-3.1-1.7-5.3v-.4c0-1.4.3-2.6.8-3.7s1.2-1.9 2.2-2.5c1-.6 2.1-.9 3.4-.9 1.6 0 2.9.5 4 1.4 1.1 1 1.6 2.2 1.7 3.7h-2.3c-.1-.9-.4-1.7-1-2.3-.6-.6-1.4-.9-2.3-.9-1.2 0-2.2.4-2.9 1.3-.7.9-1 2.2-1 3.9v.5c0 1.6.3 2.9 1 3.8s1.4 1.3 2.6 1.3zM554.9 423.3c-1.9 0-3.5-.6-4.7-1.9-1.2-1.3-1.8-3-1.8-5.1v-.4c0-1.4.3-2.7.8-3.8.5-1.1 1.3-2 2.3-2.6 1-.6 2-.9 3.2-.9 1.9 0 3.3.6 4.3 1.8s1.5 3 1.5 5.2v1h-9.7c0 1.4.4 2.5 1.2 3.4.8.9 1.8 1.3 3 1.3.9 0 1.6-.2 2.2-.5.6-.4 1.1-.8 1.6-1.4l1.5 1.2c-1.3 1.7-3 2.7-5.4 2.7zm-.3-12.8c-1 0-1.8.4-2.5 1.1-.7.7-1.1 1.7-1.2 3h7.1v-.2c-.1-1.2-.4-2.2-1-2.9-.6-.7-1.4-1-2.4-1zM571.6 419.2c0-.7-.2-1.2-.7-1.5-.5-.4-1.4-.7-2.6-.9-1.2-.3-2.2-.6-2.9-.9-.7-.4-1.3-.8-1.6-1.3-.3-.5-.5-1.1-.5-1.8 0-1.2.5-2.2 1.5-3 1-.8 2.3-1.2 3.8-1.2 1.6 0 2.9.4 3.9 1.3 1 .8 1.5 1.9 1.5 3.2h-2.5c0-.7-.3-1.2-.8-1.7-.6-.5-1.3-.7-2.1-.7-.9 0-1.6.2-2.1.6s-.8.9-.8 1.5.2 1 .7 1.3 1.3.6 2.5.9c1.2.3 2.2.6 3 1s1.3.8 1.7 1.4c.4.5.5 1.2.5 1.9 0 1.3-.5 2.3-1.5 3.1s-2.3 1.2-4 1.2c-1.1 0-2.2-.2-3-.6s-1.6-1-2.1-1.7-.7-1.5-.7-2.4h2.4c0 .8.4 1.5 1 1.9.6.5 1.4.7 2.4.7.9 0 1.7-.2 2.2-.6.5-.6.8-1.1.8-1.7zM583.1 423.3c-1.9 0-3.5-.6-4.7-1.9-1.2-1.3-1.8-3-1.8-5.1v-.4c0-1.4.3-2.7.8-3.8.5-1.1 1.3-2 2.3-2.6 1-.6 2-.9 3.2-.9 1.9 0 3.3.6 4.3 1.8s1.5 3 1.5 5.2v1H579c0 1.4.4 2.5 1.2 3.4.8.9 1.8 1.3 3 1.3.9 0 1.6-.2 2.2-.5.6-.4 1.1-.8 1.6-1.4l1.5 1.2c-1.2 1.7-3 2.7-5.4 2.7zm-.3-12.8c-1 0-1.8.4-2.5 1.1-.7.7-1.1 1.7-1.2 3h7.1v-.2c-.1-1.2-.4-2.2-1-2.9-.6-.7-1.4-1-2.4-1zM595.5 416.4L594 418v5h-2.4v-20.3h2.4V415l1.3-1.6 4.4-4.7h3l-5.5 6 6.2 8.3h-2.9l-5-6.6z"/></g><defs><path id="SVGID_17_" d="M673 523H402c-1.1 0-2-.9-2-2V375c0-1.1.9-2 2-2h271c1.1 0 2 .9 2 2v146c0 1.1-.9 2-2 2z"/></defs><clipPath id="SVGID_18_"><use xlink:href="#SVGID_17_" style="overflow:visible"/></clipPath><path class="st2" d="M537.5 536.9v60.6"/><path d="M527.5 539.8l10-17.3 10 17.3z"/><g><path class="st2" d="M537 597h175"/></g><g><path class="st2" d="M537 597H362"/></g><g><path class="st2" d="M362 597v50"/></g><g><path class="st2" d="M712 597v50"/></g><g><defs><path id="SVGID_19_" d="M498 797H227c-1.1 0-2-.9-2-2V649c0-1.1.9-2 2-2h271c1.1 0 2 .9 2 2v146c0 1.1-.9 2-2 2z"/></defs><clipPath id="SVGID_20_"><use xlink:href="#SVGID_19_" style="overflow:visible"/></clipPath><defs><path id="SVGID_21_" d="M498 797H227c-1.1 0-2-.9-2-2V649c0-1.1.9-2 2-2h271c1.1 0 2 .9 2 2v146c0 1.1-.9 2-2 2z"/></defs><use xlink:href="#SVGID_21_" style="overflow:visible;fill:#4caf50"/><clipPath id="SVGID_22_"><use xlink:href="#SVGID_21_" style="overflow:visible"/></clipPath><g style="clip-path:url(#SVGID_22_)"><path class="st1" d="M341.3 697h-2.5v-8.9h-9.7v8.9h-2.5v-19.2h2.5v8.3h9.7v-8.3h2.5V697zM354.2 695.6c-.9 1.1-2.3 1.7-4.2 1.7-1.5 0-2.7-.4-3.5-1.3-.8-.9-1.2-2.2-1.2-3.9v-9.3h2.4v9.2c0 2.2.9 3.2 2.6 3.2 1.9 0 3.1-.7 3.7-2.1v-10.4h2.4V697h-2.3l.1-1.4zm-7.4-16.7c0-.4.1-.7.4-1s.6-.4 1.1-.4.8.1 1.1.4.4.6.4 1-.1.7-.4 1-.6.4-1.1.4-.8-.1-1.1-.4-.4-.6-.4-1zm5.7 0c0-.4.1-.7.4-1s.6-.4 1.1-.4.8.1 1.1.4.4.6.4 1-.1.7-.4 1-.6.4-1.1.4-.8-.1-1.1-.4-.4-.6-.4-1zM363 697h-2.4v-20.3h2.4V697zM369.5 697h-2.4v-20.3h2.4V697zM372.8 689.7c0-1.4.3-2.7.8-3.8.5-1.1 1.3-2 2.3-2.6 1-.6 2.1-.9 3.4-.9 1.9 0 3.5.7 4.7 2 1.2 1.3 1.8 3.1 1.8 5.4v.2c0 1.4-.3 2.6-.8 3.7s-1.3 2-2.3 2.6c-1 .6-2.1.9-3.4.9-1.9 0-3.5-.7-4.7-2-1.2-1.3-1.8-3.1-1.8-5.3v-.2zm2.4.3c0 1.6.4 2.9 1.1 3.8.7 1 1.7 1.4 2.9 1.4s2.2-.5 3-1.5c.7-1 1.1-2.3 1.1-4.1 0-1.6-.4-2.8-1.1-3.8-.7-1-1.7-1.5-3-1.5-1.2 0-2.2.5-2.9 1.4-.7 1.2-1.1 2.5-1.1 4.3zm2.9-13.2h2.6l-2.9 4h-2l2.3-4zm4.5 0h2.7l-3.5 4h-2.2l3-4zM392.8 690.4l-1.5 1.6v5h-2.4v-20.3h2.4V689l1.3-1.6 4.4-4.7h3l-5.6 6 6.2 8.3h-2.9l-4.9-6.6z"/></g><g><defs><path id="SVGID_23_" d="M498 797H227c-1.1 0-2-.9-2-2V649c0-1.1.9-2 2-2h271c1.1 0 2 .9 2 2v146c0 1.1-.9 2-2 2z"/></defs><clipPath id="SVGID_24_"><use xlink:href="#SVGID_23_" style="overflow:visible"/></clipPath></g></g><g><defs><path id="SVGID_25_" d="M848 797H577c-1.1 0-2-.9-2-2V649c0-1.1.9-2 2-2h271c1.1 0 2 .9 2 2v146c0 1.1-.9 2-2 2z"/></defs><clipPath id="SVGID_26_"><use xlink:href="#SVGID_25_" style="overflow:visible"/></clipPath><defs><path id="SVGID_27_" d="M848 797H577c-1.1 0-2-.9-2-2V649c0-1.1.9-2 2-2h271c1.1 0 2 .9 2 2v146c0 1.1-.9 2-2 2z"/></defs><use xlink:href="#SVGID_27_" style="overflow:visible;fill:#4caf50"/><clipPath id="SVGID_28_"><use xlink:href="#SVGID_27_" style="overflow:visible"/></clipPath><g style="clip-path:url(#SVGID_28_)"><path class="st1" d="M673.1 688.1h-8.3v6.8h9.7v2.1h-12.2v-19.2h12.1v2.1h-9.5v6.2h8.3v2zM679.5 682.7l.1 1.6c1-1.2 2.5-1.8 4.2-1.8 2 0 3.4.8 4.1 2.3.5-.7 1.1-1.2 1.9-1.7.8-.4 1.7-.6 2.7-.6 3.1 0 4.7 1.7 4.8 5v9.6h-2.4v-9.4c0-1-.2-1.8-.7-2.3-.5-.5-1.2-.8-2.3-.8-.9 0-1.7.3-2.3.8-.6.5-.9 1.3-1 2.2v9.5H686v-9.3c0-2.1-1-3.1-3-3.1-1.6 0-2.7.7-3.3 2V697h-2.4v-14.3h2.2zM703.5 697h-2.4v-20.3h2.4V697zM706.8 689.7c0-1.4.3-2.7.8-3.8.5-1.1 1.3-2 2.3-2.6 1-.6 2.1-.9 3.4-.9 1.9 0 3.5.7 4.7 2 1.2 1.3 1.8 3.1 1.8 5.4v.2c0 1.4-.3 2.6-.8 3.7s-1.3 2-2.3 2.6c-1 .6-2.1.9-3.4.9-1.9 0-3.5-.7-4.7-2-1.2-1.3-1.8-3.1-1.8-5.3v-.2zm2.4.3c0 1.6.4 2.9 1.1 3.8.7 1 1.7 1.4 2.9 1.4s2.2-.5 3-1.5c.7-1 1.1-2.3 1.1-4.1 0-1.6-.4-2.8-1.1-3.8-.7-1-1.7-1.5-3-1.5-1.2 0-2.2.5-2.9 1.4-.7 1.2-1.1 2.5-1.1 4.3zm2.9-13.2h2.6l-2.9 4h-2l2.3-4zm4.5 0h2.7l-3.5 4h-2.2l3-4zM731.1 693.2c0-.7-.2-1.2-.7-1.5-.5-.4-1.4-.7-2.6-.9-1.2-.3-2.2-.6-2.9-.9-.7-.4-1.3-.8-1.6-1.3-.3-.5-.5-1.1-.5-1.8 0-1.2.5-2.2 1.5-3 1-.8 2.3-1.2 3.8-1.2 1.6 0 2.9.4 3.9 1.3 1 .8 1.5 1.9 1.5 3.2H731c0-.7-.3-1.2-.8-1.7-.6-.5-1.3-.7-2.1-.7-.9 0-1.6.2-2.1.6s-.8.9-.8 1.5.2 1 .7 1.3 1.3.6 2.5.9c1.2.3 2.2.6 3 1s1.3.8 1.7 1.4c.4.5.5 1.2.5 1.9 0 1.3-.5 2.3-1.5 3.1-1 .8-2.3 1.2-4 1.2-1.1 0-2.2-.2-3-.6s-1.6-1-2.1-1.7-.7-1.5-.7-2.4h2.4c0 .8.4 1.5 1 1.9.6.5 1.4.7 2.4.7.9 0 1.7-.2 2.2-.6.6-.6.8-1.1.8-1.7zM736.1 689.7c0-1.4.3-2.7.8-3.8.5-1.1 1.3-2 2.3-2.6 1-.6 2.1-.9 3.4-.9 1.9 0 3.5.7 4.7 2 1.2 1.3 1.8 3.1 1.8 5.4v.2c0 1.4-.3 2.6-.8 3.7s-1.3 2-2.3 2.6c-1 .6-2.1.9-3.4.9-1.9 0-3.5-.7-4.7-2-1.2-1.3-1.8-3.1-1.8-5.3v-.2zm2.1-10.8c0-.4.1-.7.4-1 .2-.3.6-.4 1.1-.4s.8.1 1.1.4c.2.3.4.6.4 1s-.1.7-.4 1c-.2.3-.6.4-1.1.4s-.8-.1-1.1-.4c-.2-.3-.4-.6-.4-1zm.4 11.1c0 1.6.4 2.9 1.1 3.8.7 1 1.7 1.4 2.9 1.4s2.2-.5 3-1.5c.7-1 1.1-2.3 1.1-4.1 0-1.6-.4-2.8-1.1-3.8-.7-1-1.7-1.5-3-1.5-1.2 0-2.2.5-2.9 1.4-.8 1.2-1.1 2.5-1.1 4.3zm5.3-11.1c0-.4.1-.7.4-1 .2-.3.6-.4 1.1-.4s.8.1 1.1.4.4.6.4 1-.1.7-.4 1-.6.4-1.1.4-.8-.1-1.1-.4c-.3-.2-.4-.6-.4-1zM756.1 690.4l-1.5 1.6v5h-2.4v-20.3h2.4V689l1.3-1.6 4.4-4.7h3l-5.5 6 6.2 8.3h-2.9l-5-6.6z"/></g><g><defs><path id="SVGID_29_" d="M848 797H577c-1.1 0-2-.9-2-2V649c0-1.1.9-2 2-2h271c1.1 0 2 .9 2 2v146c0 1.1-.9 2-2 2z"/></defs><clipPath id="SVGID_30_"><use xlink:href="#SVGID_29_" style="overflow:visible"/></clipPath></g></g></svg>