<?xml version="1.0" encoding="utf-8"?>
<!-- Generator: Adobe Illustrator 21.1.0, SVG Export Plug-In . SVG Version: 6.00 Build 0)  -->
<svg version="1.1" xmlns="http://www.w3.org/2000/svg" x="0px" y="0px"
     viewBox="0 0 480 160" style="enable-background:new 0 0 480 160;" xml:space="preserve">
<style type="text/css">
	.st0{fill:#4CAF50;stroke:#FFFFFF;stroke-miterlimit:10;}
	.st1{fill:#FFFFFF;}
	.st2{fill:none;stroke:#333391;stroke-width:2;stroke-linejoin:bevel;}
	.st3{fill:#333391;}
	.st4{fill:none;stroke:#C1272D;stroke-width:2;stroke-linejoin:bevel;}
	.st5{fill:#C1272D;}
</style>
	<g id="Layer_1">
	<rect x="240" y="40" class="st0" width="40" height="40"/>
		<rect x="280" y="40" class="st0" width="40" height="40"/>
		<rect x="320" y="40" class="st0" width="40" height="40"/>
		<rect x="360" y="40" class="st0" width="40" height="40"/>
		<rect x="80" y="40" class="st0" width="40" height="40"/>
		<rect x="200" y="40" class="st0" width="40" height="40"/>
		<rect x="120" y="40" class="st0" width="40" height="40"/>
		<rect x="160" y="40" class="st0" width="40" height="40"/>
		<g>
		<path class="st1" d="M96.2,65.4h-1.7V54.2l-3.4,1.2v-1.5l4.8-1.8h0.3V65.4z"/>
			<path class="st1" d="M108.2,61h1.8v1.4h-1.8v3.1h-1.7v-3.1h-6v-1l5.9-9.2h1.8V61z M102.4,61h4.1v-6.5l-0.2,0.4L102.4,61z"/>
	</g>
		<g>
		<path class="st1" d="M139.3,65.4h-8.7v-1.2l4.6-5.1c0.7-0.8,1.1-1.4,1.4-1.9c0.3-0.5,0.4-1,0.4-1.5c0-0.7-0.2-1.3-0.6-1.7
			c-0.4-0.4-1-0.7-1.7-0.7c-0.8,0-1.5,0.2-2,0.7c-0.5,0.5-0.7,1.1-0.7,2h-1.7c0-1.2,0.4-2.2,1.2-3c0.8-0.8,1.8-1.1,3.2-1.1
			c1.2,0,2.2,0.3,2.9,1c0.7,0.6,1.1,1.5,1.1,2.6c0,1.3-0.8,2.9-2.5,4.7l-3.6,3.9h6.7V65.4z"/>
			<path class="st1" d="M149.4,59.8c0,2-0.3,3.4-1,4.4c-0.7,1-1.7,1.4-3.2,1.4c-1.4,0-2.5-0.5-3.1-1.4c-0.7-0.9-1-2.3-1.1-4.2v-2.2
			c0-1.9,0.3-3.4,1-4.3c0.7-0.9,1.7-1.4,3.2-1.4c1.4,0,2.5,0.5,3.1,1.4c0.7,0.9,1,2.3,1,4.2V59.8z M147.7,57.5
			c0-1.4-0.2-2.5-0.6-3.1s-1-1-1.9-1c-0.9,0-1.5,0.3-1.9,1c-0.4,0.6-0.6,1.6-0.6,3v2.7c0,1.4,0.2,2.5,0.6,3.2c0.4,0.7,1,1,1.9,1
			c0.8,0,1.4-0.3,1.9-1c0.4-0.6,0.6-1.7,0.6-3V57.5z"/>
	</g>
		<g>
		<path class="st1" d="M179.3,65.4h-8.7v-1.2l4.6-5.1c0.7-0.8,1.1-1.4,1.4-1.9c0.3-0.5,0.4-1,0.4-1.5c0-0.7-0.2-1.3-0.6-1.7
			c-0.4-0.4-1-0.7-1.7-0.7c-0.8,0-1.5,0.2-2,0.7c-0.5,0.5-0.7,1.1-0.7,2h-1.7c0-1.2,0.4-2.2,1.2-3c0.8-0.8,1.8-1.1,3.2-1.1
			c1.2,0,2.2,0.3,2.9,1c0.7,0.6,1.1,1.5,1.1,2.6c0,1.3-0.8,2.9-2.5,4.7l-3.6,3.9h6.7V65.4z"/>
			<path class="st1" d="M187.7,52.2v1.4h-0.3c-1.3,0-2.4,0.4-3.1,1.2s-1.2,1.8-1.3,3.2c0.7-0.8,1.7-1.2,2.9-1.2
			c1.2,0,2.1,0.4,2.8,1.2c0.7,0.8,1,1.9,1,3.1c0,1.4-0.4,2.5-1.1,3.3s-1.7,1.2-3,1.2c-1.3,0-2.3-0.5-3.1-1.5c-0.8-1-1.2-2.2-1.2-3.8
			v-0.6c0-2.4,0.5-4.3,1.6-5.6c1-1.3,2.6-1.9,4.6-2H187.7z M185.5,58.2c-0.6,0-1.1,0.2-1.6,0.5c-0.5,0.3-0.8,0.8-1,1.3v0.6
			c0,1.1,0.2,2,0.7,2.6c0.5,0.7,1.1,1,1.8,1c0.8,0,1.4-0.3,1.8-0.8c0.4-0.6,0.7-1.3,0.7-2.2c0-0.9-0.2-1.6-0.7-2.2
			C186.8,58.4,186.2,58.2,185.5,58.2z"/>
	</g>
		<g>
		<path class="st1" d="M217.7,61h1.8v1.4h-1.8v3.1H216v-3.1h-6v-1l5.9-9.2h1.8V61z M211.9,61h4.1v-6.5l-0.2,0.4L211.9,61z"/>
			<path class="st1" d="M223.6,58h1.3c0.8,0,1.4-0.2,1.9-0.6c0.5-0.4,0.7-1,0.7-1.6c0-1.6-0.8-2.3-2.3-2.3c-0.7,0-1.3,0.2-1.7,0.6
			c-0.4,0.4-0.7,1-0.7,1.7H221c0-1,0.4-1.9,1.2-2.6c0.8-0.7,1.7-1,2.9-1c1.3,0,2.2,0.3,2.9,1s1.1,1.6,1.1,2.8c0,0.6-0.2,1.1-0.6,1.7
			c-0.4,0.5-0.9,0.9-1.5,1.2c0.7,0.2,1.3,0.6,1.7,1.1c0.4,0.5,0.6,1.2,0.6,2c0,1.2-0.4,2.1-1.2,2.8c-0.8,0.7-1.8,1-3,1s-2.3-0.3-3-1
			s-1.2-1.6-1.2-2.7h1.7c0,0.7,0.2,1.3,0.7,1.7s1.1,0.6,1.8,0.6c0.8,0,1.4-0.2,1.9-0.6c0.4-0.4,0.6-1,0.6-1.8c0-0.8-0.2-1.4-0.7-1.8
			c-0.5-0.4-1.2-0.6-2-0.6h-1.3V58z"/>
	</g>
		<g>
		<path class="st1" d="M251.4,58.8l0.7-6.6h6.8v1.6h-5.4l-0.4,3.6c0.6-0.4,1.4-0.6,2.2-0.6c1.2,0,2.2,0.4,2.9,1.2
			c0.7,0.8,1.1,1.9,1.1,3.2c0,1.4-0.4,2.4-1.1,3.2c-0.7,0.8-1.8,1.2-3.1,1.2c-1.2,0-2.1-0.3-2.9-1s-1.2-1.5-1.3-2.7h1.6
			c0.1,0.8,0.4,1.3,0.8,1.7c0.4,0.4,1,0.6,1.7,0.6c0.8,0,1.4-0.3,1.8-0.8c0.4-0.5,0.7-1.3,0.7-2.2c0-0.9-0.2-1.6-0.7-2.1
			c-0.5-0.5-1.1-0.8-1.9-0.8c-0.7,0-1.3,0.2-1.7,0.5l-0.4,0.4L251.4,58.8z"/>
			<path class="st1" d="M263.6,58h1.3c0.8,0,1.4-0.2,1.9-0.6c0.5-0.4,0.7-1,0.7-1.6c0-1.6-0.8-2.3-2.3-2.3c-0.7,0-1.3,0.2-1.7,0.6
			c-0.4,0.4-0.7,1-0.7,1.7H261c0-1,0.4-1.9,1.2-2.6c0.8-0.7,1.7-1,2.9-1c1.3,0,2.2,0.3,2.9,1c0.7,0.7,1.1,1.6,1.1,2.8
			c0,0.6-0.2,1.1-0.6,1.7s-0.9,0.9-1.5,1.2c0.7,0.2,1.3,0.6,1.7,1.1c0.4,0.5,0.6,1.2,0.6,2c0,1.2-0.4,2.1-1.2,2.8
			c-0.8,0.7-1.8,1-3,1s-2.3-0.3-3-1c-0.8-0.7-1.2-1.6-1.2-2.7h1.7c0,0.7,0.2,1.3,0.7,1.7s1.1,0.6,1.8,0.6c0.8,0,1.4-0.2,1.9-0.6
			c0.4-0.4,0.6-1,0.6-1.8c0-0.8-0.2-1.4-0.7-1.8c-0.5-0.4-1.2-0.6-2-0.6h-1.3V58z"/>
	</g>
		<g>
		<path class="st1" d="M298.7,55.7c0,0.7-0.2,1.3-0.5,1.8c-0.3,0.5-0.8,0.9-1.4,1.2c0.7,0.3,1.2,0.7,1.6,1.3
			c0.4,0.6,0.6,1.2,0.6,1.9c0,1.1-0.4,2.1-1.2,2.7s-1.8,1-3.1,1c-1.3,0-2.3-0.3-3.1-1s-1.2-1.6-1.2-2.7c0-0.7,0.2-1.4,0.6-1.9
			c0.4-0.6,0.9-1,1.6-1.3c-0.6-0.3-1.1-0.7-1.4-1.2s-0.5-1.1-0.5-1.8c0-1.1,0.4-2,1.1-2.7c0.7-0.7,1.7-1,2.8-1c1.2,0,2.1,0.3,2.8,1
			S298.7,54.5,298.7,55.7z M297.3,61.8c0-0.7-0.2-1.3-0.7-1.8c-0.5-0.5-1.1-0.7-1.8-0.7s-1.4,0.2-1.8,0.7c-0.5,0.5-0.7,1.1-0.7,1.8
			c0,0.8,0.2,1.3,0.7,1.8c0.4,0.4,1.1,0.6,1.9,0.6c0.8,0,1.4-0.2,1.9-0.7C297.1,63.2,297.3,62.6,297.3,61.8z M294.8,53.4
			c-0.7,0-1.2,0.2-1.6,0.6c-0.4,0.4-0.6,1-0.6,1.7c0,0.7,0.2,1.2,0.6,1.6c0.4,0.4,0.9,0.6,1.6,0.6c0.7,0,1.2-0.2,1.6-0.6
			s0.6-1,0.6-1.6c0-0.7-0.2-1.2-0.6-1.6C295.9,53.6,295.4,53.4,294.8,53.4z"/>
			<path class="st1" d="M309.4,59.8c0,2-0.3,3.4-1,4.4s-1.7,1.4-3.2,1.4c-1.4,0-2.5-0.5-3.1-1.4c-0.7-0.9-1-2.3-1.1-4.2v-2.2
			c0-1.9,0.3-3.4,1-4.3c0.7-0.9,1.7-1.4,3.2-1.4c1.4,0,2.5,0.5,3.1,1.4c0.7,0.9,1,2.3,1,4.2V59.8z M307.7,57.5
			c0-1.4-0.2-2.5-0.6-3.1s-1-1-1.9-1c-0.9,0-1.5,0.3-1.9,1c-0.4,0.6-0.6,1.6-0.6,3v2.7c0,1.4,0.2,2.5,0.6,3.2c0.4,0.7,1,1,1.9,1
			c0.8,0,1.4-0.3,1.9-1c0.4-0.6,0.6-1.7,0.6-3V57.5z"/>
	</g>
		<g>
		<path class="st1" d="M338.7,55.7c0,0.7-0.2,1.3-0.5,1.8c-0.3,0.5-0.8,0.9-1.4,1.2c0.7,0.3,1.2,0.7,1.6,1.3
			c0.4,0.6,0.6,1.2,0.6,1.9c0,1.1-0.4,2.1-1.2,2.7s-1.8,1-3.1,1c-1.3,0-2.3-0.3-3.1-1s-1.2-1.6-1.2-2.7c0-0.7,0.2-1.4,0.6-1.9
			c0.4-0.6,0.9-1,1.6-1.3c-0.6-0.3-1.1-0.7-1.4-1.2s-0.5-1.1-0.5-1.8c0-1.1,0.4-2,1.1-2.7c0.7-0.7,1.7-1,2.8-1c1.2,0,2.1,0.3,2.8,1
			S338.7,54.5,338.7,55.7z M337.3,61.8c0-0.7-0.2-1.3-0.7-1.8c-0.5-0.5-1.1-0.7-1.8-0.7s-1.4,0.2-1.8,0.7c-0.5,0.5-0.7,1.1-0.7,1.8
			c0,0.8,0.2,1.3,0.7,1.8c0.4,0.4,1.1,0.6,1.9,0.6c0.8,0,1.4-0.2,1.9-0.7C337.1,63.2,337.3,62.6,337.3,61.8z M334.8,53.4
			c-0.7,0-1.2,0.2-1.6,0.6c-0.4,0.4-0.6,1-0.6,1.7c0,0.7,0.2,1.2,0.6,1.6c0.4,0.4,0.9,0.6,1.6,0.6c0.7,0,1.2-0.2,1.6-0.6
			s0.6-1,0.6-1.6c0-0.7-0.2-1.2-0.6-1.6C335.9,53.6,335.4,53.4,334.8,53.4z"/>
			<path class="st1" d="M349.4,59.8c0,2-0.3,3.4-1,4.4s-1.7,1.4-3.2,1.4c-1.4,0-2.5-0.5-3.1-1.4c-0.7-0.9-1-2.3-1.1-4.2v-2.2
			c0-1.9,0.3-3.4,1-4.3c0.7-0.9,1.7-1.4,3.2-1.4c1.4,0,2.5,0.5,3.1,1.4c0.7,0.9,1,2.3,1,4.2V59.8z M347.7,57.5
			c0-1.4-0.2-2.5-0.6-3.1s-1-1-1.9-1c-0.9,0-1.5,0.3-1.9,1c-0.4,0.6-0.6,1.6-0.6,3v2.7c0,1.4,0.2,2.5,0.6,3.2c0.4,0.7,1,1,1.9,1
			c0.8,0,1.4-0.3,1.9-1c0.4-0.6,0.6-1.7,0.6-3V57.5z"/>
	</g>
		<g>
		<path class="st1" d="M377.7,61h1.8v1.4h-1.8v3.1H376v-3.1h-6v-1l5.9-9.2h1.8V61z M371.9,61h4.1v-6.5l-0.2,0.4L371.9,61z"/>
			<path class="st1" d="M386.6,65.4h-1.7V54.2l-3.4,1.2v-1.5l4.8-1.8h0.3V65.4z"/>
	</g>
		<g>
		<g>
			<path class="st2" d="M94,85c-1.4,3.3-6.9,14.9-20,21c-16.8,7.9-32.7,0.5-36-1c-9.9-4.6-16.2-11.9-19.9-18"/>
			<g>
				<path class="st3" d="M13,76c4.3,4.2,10.6,9,15.9,11.3l-10.1,1l-7.1,7.2C13.3,89.9,13.5,82,13,76z"/>
			</g>
		</g>
	</g>
		<g>
		<g>
			<path class="st4" d="M93.4,108.2c-3.1,5.3-6.6,8.4-8.4,9.8c-15.2,12.3-37.3,8.9-51,1c-8.3-4.8-13.3-11.1-16-15"/>
			<g>
				<path class="st5" d="M98,97c-4.2,4.4-10.3,9.4-15.5,11.9l10.1,0.6l7.4,6.9C98.2,110.9,97.7,103,98,97z"/>
			</g>
		</g>
	</g>
		<g>
		<g>
			<path class="st2" d="M387,86c1.4,3.3,6.9,14.9,20,21c16.8,7.9,32.7,0.5,36-1c9.9-4.6,16.2-11.9,19.9-18"/>
			<g>
				<path class="st3" d="M468,77c-0.5,6-0.3,13.9,1.2,19.5l-7.1-7.2l-10.1-1C457.4,86,463.7,81.2,468,77z"/>
			</g>
		</g>
	</g>
		<g>
		<g>
			<path class="st4" d="M387.6,109.2c3.1,5.3,6.6,8.4,8.4,9.8c15.2,12.3,37.3,8.9,51,1c8.3-4.8,13.3-11.1,16-15"/>
			<g>
				<path class="st5" d="M383,98c0.3,6-0.2,13.9-2,19.5l7.4-6.9l10.1-0.6C393.3,107.4,387.2,102.4,383,98z"/>
			</g>
		</g>
	</g>
</g>
	<g id="Layer_2">
	<g>
	</g>
		<g>
	</g>
		<g>
	</g>
		<g>
	</g>
		<g>
	</g>
		<g>
	</g>
		<g>
	</g>
		<g>
	</g>
		<g>
	</g>
		<g>
	</g>
		<g>
	</g>
		<g>
	</g>
		<g>
	</g>
		<g>
	</g>
		<g>
	</g>
		<g>
	</g>
</g>
</svg>
