<?xml version="1.0" encoding="utf-8"?>
<!-- Generator: Adobe Illustrator 21.1.0, SVG Export Plug-In . SVG Version: 6.00 Build 0)  -->
<svg version="1.1" xmlns="http://www.w3.org/2000/svg" x="0px" y="0px"
     viewBox="0 0 440 160" style="enable-background:new 0 0 440 160;" xml:space="preserve">
<style type="text/css">
	.st0{fill:#4CAF50;stroke:#FFFFFF;stroke-miterlimit:10;}
	.st1{fill:#FFFFFF;}
	.st2{fill:none;stroke:#C1272D;stroke-width:2;stroke-linejoin:bevel;}
	.st3{fill:#C1272D;}
</style>
	<g id="Layer_1">
	<rect x="200" y="40" class="st0" width="40" height="40"/>
		<rect x="240" y="40" class="st0" width="40" height="40"/>
		<rect x="280" y="40" class="st0" width="40" height="40"/>
		<rect x="320" y="40" class="st0" width="40" height="40"/>
		<rect x="40" y="40" class="st0" width="40" height="40"/>
		<rect x="160" y="40" class="st0" width="40" height="40"/>
		<rect x="80" y="40" class="st0" width="40" height="40"/>
		<rect x="120" y="40" class="st0" width="40" height="40"/>
		<g>
		<path class="st1" d="M53.1,58h1.3c0.8,0,1.4-0.2,1.9-0.6c0.5-0.4,0.7-1,0.7-1.6c0-1.6-0.8-2.3-2.3-2.3c-0.7,0-1.3,0.2-1.7,0.6
			c-0.4,0.4-0.7,1-0.7,1.7h-1.7c0-1,0.4-1.9,1.2-2.6c0.8-0.7,1.7-1,2.9-1c1.3,0,2.2,0.3,2.9,1s1.1,1.6,1.1,2.8
			c0,0.6-0.2,1.1-0.6,1.7c-0.4,0.5-0.9,0.9-1.5,1.2c0.7,0.2,1.3,0.6,1.7,1.1c0.4,0.5,0.6,1.2,0.6,2c0,1.2-0.4,2.1-1.2,2.8
			c-0.8,0.7-1.8,1-3,1s-2.3-0.3-3-1s-1.2-1.6-1.2-2.7h1.7c0,0.7,0.2,1.3,0.7,1.7s1.1,0.6,1.8,0.6c0.8,0,1.4-0.2,1.9-0.6
			c0.4-0.4,0.6-1,0.6-1.8c0-0.8-0.2-1.4-0.7-1.8c-0.5-0.4-1.2-0.6-2-0.6h-1.3V58z"/>
			<path class="st1" d="M69.4,59.8c0,2-0.3,3.4-1,4.4c-0.7,1-1.7,1.4-3.2,1.4c-1.4,0-2.5-0.5-3.1-1.4c-0.7-0.9-1-2.3-1.1-4.2v-2.2
			c0-1.9,0.3-3.4,1-4.3c0.7-0.9,1.7-1.4,3.2-1.4c1.4,0,2.5,0.5,3.1,1.4c0.7,0.9,1,2.3,1,4.2V59.8z M67.7,57.5c0-1.4-0.2-2.5-0.6-3.1
			s-1-1-1.9-1c-0.9,0-1.5,0.3-1.9,1c-0.4,0.6-0.6,1.6-0.6,3v2.7c0,1.4,0.2,2.5,0.6,3.2c0.4,0.7,1,1,1.9,1c0.8,0,1.4-0.3,1.9-1
			c0.4-0.6,0.6-1.7,0.6-3V57.5z"/>
	</g>
		<g>
		<path class="st1" d="M96.2,65.4h-1.7V54.2l-3.4,1.2v-1.5l4.8-1.8h0.3V65.4z"/>
			<path class="st1" d="M107.7,52.2v1.4h-0.3c-1.3,0-2.4,0.4-3.1,1.2s-1.2,1.8-1.3,3.2c0.7-0.8,1.7-1.2,2.9-1.2
			c1.2,0,2.1,0.4,2.8,1.2c0.7,0.8,1,1.9,1,3.1c0,1.4-0.4,2.5-1.1,3.3s-1.7,1.2-3,1.2c-1.3,0-2.3-0.5-3.1-1.5c-0.8-1-1.2-2.2-1.2-3.8
			v-0.6c0-2.4,0.5-4.3,1.6-5.6c1-1.3,2.6-1.9,4.6-2H107.7z M105.5,58.2c-0.6,0-1.1,0.2-1.6,0.5c-0.5,0.3-0.8,0.8-1,1.3v0.6
			c0,1.1,0.2,2,0.7,2.6c0.5,0.7,1.1,1,1.8,1c0.8,0,1.4-0.3,1.8-0.8c0.4-0.6,0.7-1.3,0.7-2.2c0-0.9-0.2-1.6-0.7-2.2
			C106.8,58.4,106.2,58.2,105.5,58.2z"/>
	</g>
		<g>
		<path class="st1" d="M137.2,52.2v1.4h-0.3c-1.3,0-2.4,0.4-3.1,1.2s-1.2,1.8-1.3,3.2c0.7-0.8,1.7-1.2,2.9-1.2
			c1.2,0,2.1,0.4,2.8,1.2c0.7,0.8,1,1.9,1,3.1c0,1.4-0.4,2.5-1.1,3.3s-1.7,1.2-3,1.2c-1.3,0-2.3-0.5-3.1-1.5c-0.8-1-1.2-2.2-1.2-3.8
			v-0.6c0-2.4,0.5-4.3,1.6-5.6c1-1.3,2.6-1.9,4.6-2H137.2z M135,58.2c-0.6,0-1.1,0.2-1.6,0.5c-0.5,0.3-0.8,0.8-1,1.3v0.6
			c0,1.1,0.2,2,0.7,2.6c0.5,0.7,1.1,1,1.8,1c0.8,0,1.4-0.3,1.8-0.8c0.4-0.6,0.7-1.3,0.7-2.2c0-0.9-0.2-1.6-0.7-2.2
			C136.3,58.4,135.8,58.2,135,58.2z"/>
			<path class="st1" d="M147.6,59.6c-0.4,0.4-0.8,0.8-1.3,1s-1,0.4-1.6,0.4c-0.8,0-1.4-0.2-2-0.6c-0.6-0.4-1-0.9-1.3-1.6
			s-0.5-1.4-0.5-2.3c0-0.9,0.2-1.7,0.5-2.4s0.8-1.3,1.4-1.6c0.6-0.4,1.3-0.6,2.2-0.6c1.3,0,2.3,0.5,3.1,1.5c0.8,1,1.1,2.3,1.1,4V58
			c0,2.6-0.5,4.5-1.5,5.6s-2.6,1.8-4.6,1.8h-0.3V64h0.4c1.4,0,2.5-0.4,3.2-1.1C147.1,62.2,147.5,61.1,147.6,59.6z M145,59.6
			c0.6,0,1.1-0.2,1.6-0.5c0.5-0.3,0.8-0.8,1-1.3v-0.7c0-1.1-0.2-2-0.7-2.7s-1.1-1-1.8-1c-0.7,0-1.3,0.3-1.8,0.9
			c-0.4,0.6-0.7,1.3-0.7,2.2c0,0.9,0.2,1.6,0.7,2.2S144.2,59.6,145,59.6z"/>
	</g>
		<g>
		<path class="st1" d="M177.2,52.2v1.4h-0.3c-1.3,0-2.4,0.4-3.1,1.2s-1.2,1.8-1.3,3.2c0.7-0.8,1.7-1.2,2.9-1.2
			c1.2,0,2.1,0.4,2.8,1.2c0.7,0.8,1,1.9,1,3.1c0,1.4-0.4,2.5-1.1,3.3s-1.7,1.2-3,1.2c-1.3,0-2.3-0.5-3.1-1.5c-0.8-1-1.2-2.2-1.2-3.8
			v-0.6c0-2.4,0.5-4.3,1.6-5.6c1-1.3,2.6-1.9,4.6-2H177.2z M175,58.2c-0.6,0-1.1,0.2-1.6,0.5c-0.5,0.3-0.8,0.8-1,1.3v0.6
			c0,1.1,0.2,2,0.7,2.6c0.5,0.7,1.1,1,1.8,1c0.8,0,1.4-0.3,1.8-0.8c0.4-0.6,0.7-1.3,0.7-2.2c0-0.9-0.2-1.6-0.7-2.2
			C176.3,58.4,175.8,58.2,175,58.2z"/>
			<path class="st1" d="M188.2,61h1.8v1.4h-1.8v3.1h-1.7v-3.1h-6v-1l5.9-9.2h1.8V61z M182.4,61h4.1v-6.5l-0.2,0.4L182.4,61z"/>
	</g>
		<g>
		<path class="st1" d="M218.7,55.7c0,0.7-0.2,1.3-0.5,1.8c-0.3,0.5-0.8,0.9-1.4,1.2c0.7,0.3,1.2,0.7,1.6,1.3
			c0.4,0.6,0.6,1.2,0.6,1.9c0,1.1-0.4,2.1-1.2,2.7s-1.8,1-3.1,1c-1.3,0-2.3-0.3-3.1-1s-1.2-1.6-1.2-2.7c0-0.7,0.2-1.4,0.6-1.9
			c0.4-0.6,0.9-1,1.6-1.3c-0.6-0.3-1.1-0.7-1.4-1.2s-0.5-1.1-0.5-1.8c0-1.1,0.4-2,1.1-2.7c0.7-0.7,1.7-1,2.8-1c1.2,0,2.1,0.3,2.8,1
			S218.7,54.5,218.7,55.7z M217.3,61.8c0-0.7-0.2-1.3-0.7-1.8c-0.5-0.5-1.1-0.7-1.8-0.7s-1.4,0.2-1.8,0.7c-0.5,0.5-0.7,1.1-0.7,1.8
			c0,0.8,0.2,1.3,0.7,1.8c0.4,0.4,1.1,0.6,1.9,0.6c0.8,0,1.4-0.2,1.9-0.7C217.1,63.2,217.3,62.6,217.3,61.8z M214.8,53.4
			c-0.7,0-1.2,0.2-1.6,0.6c-0.4,0.4-0.6,1-0.6,1.7c0,0.7,0.2,1.2,0.6,1.6c0.4,0.4,0.9,0.6,1.6,0.6c0.7,0,1.2-0.2,1.6-0.6
			s0.6-1,0.6-1.6c0-0.7-0.2-1.2-0.6-1.6C215.9,53.6,215.4,53.4,214.8,53.4z"/>
			<path class="st1" d="M227.7,52.2v1.4h-0.3c-1.3,0-2.4,0.4-3.1,1.2s-1.2,1.8-1.3,3.2c0.7-0.8,1.7-1.2,2.9-1.2
			c1.2,0,2.1,0.4,2.8,1.2c0.7,0.8,1,1.9,1,3.1c0,1.4-0.4,2.5-1.1,3.3c-0.7,0.8-1.7,1.2-3,1.2c-1.3,0-2.3-0.5-3.1-1.5
			c-0.8-1-1.2-2.2-1.2-3.8v-0.6c0-2.4,0.5-4.3,1.6-5.6c1-1.3,2.6-1.9,4.6-2H227.7z M225.5,58.2c-0.6,0-1.1,0.2-1.6,0.5
			c-0.5,0.3-0.8,0.8-1,1.3v0.6c0,1.1,0.2,2,0.7,2.6c0.5,0.7,1.1,1,1.8,1c0.8,0,1.4-0.3,1.8-0.8s0.7-1.3,0.7-2.2
			c0-0.9-0.2-1.6-0.7-2.2S226.2,58.2,225.5,58.2z"/>
	</g>
		<g>
		<path class="st1" d="M257.2,52.2v1.4h-0.3c-1.3,0-2.4,0.4-3.1,1.2c-0.8,0.8-1.2,1.8-1.3,3.2c0.7-0.8,1.7-1.2,2.9-1.2
			c1.2,0,2.1,0.4,2.8,1.2c0.7,0.8,1,1.9,1,3.1c0,1.4-0.4,2.5-1.1,3.3s-1.7,1.2-3,1.2c-1.3,0-2.3-0.5-3.1-1.5c-0.8-1-1.2-2.2-1.2-3.8
			v-0.6c0-2.4,0.5-4.3,1.6-5.6s2.6-1.9,4.6-2H257.2z M255,58.2c-0.6,0-1.1,0.2-1.6,0.5c-0.5,0.3-0.8,0.8-1,1.3v0.6
			c0,1.1,0.2,2,0.7,2.6c0.5,0.7,1.1,1,1.8,1c0.8,0,1.4-0.3,1.8-0.8c0.4-0.6,0.7-1.3,0.7-2.2c0-0.9-0.2-1.6-0.7-2.2
			C256.3,58.4,255.8,58.2,255,58.2z"/>
			<path class="st1" d="M269.8,65.4h-8.7v-1.2l4.6-5.1c0.7-0.8,1.1-1.4,1.4-1.9s0.4-1,0.4-1.5c0-0.7-0.2-1.3-0.6-1.7
			c-0.4-0.4-1-0.7-1.7-0.7c-0.8,0-1.5,0.2-2,0.7s-0.7,1.1-0.7,2h-1.7c0-1.2,0.4-2.2,1.2-3c0.8-0.8,1.8-1.1,3.2-1.1
			c1.2,0,2.2,0.3,2.9,1c0.7,0.6,1.1,1.5,1.1,2.6c0,1.3-0.8,2.9-2.5,4.7l-3.5,3.9h6.7V65.4z"/>
	</g>
		<g>
		<path class="st1" d="M296.2,65.4h-1.7V54.2l-3.4,1.2v-1.5l4.8-1.8h0.3V65.4z"/>
			<path class="st1" d="M309.8,65.4h-8.7v-1.2l4.6-5.1c0.7-0.8,1.1-1.4,1.4-1.9s0.4-1,0.4-1.5c0-0.7-0.2-1.3-0.6-1.7
			c-0.4-0.4-1-0.7-1.7-0.7c-0.8,0-1.5,0.2-2,0.7s-0.7,1.1-0.7,2h-1.7c0-1.2,0.4-2.2,1.2-3c0.8-0.8,1.8-1.1,3.2-1.1
			c1.2,0,2.2,0.3,2.9,1c0.7,0.6,1.1,1.5,1.1,2.6c0,1.3-0.8,2.9-2.5,4.7l-3.5,3.9h6.7V65.4z"/>
	</g>
		<g>
		<path class="st1" d="M331.4,58.8l0.7-6.6h6.8v1.6h-5.4l-0.4,3.6c0.6-0.4,1.4-0.6,2.2-0.6c1.2,0,2.2,0.4,2.9,1.2
			c0.7,0.8,1.1,1.9,1.1,3.2c0,1.4-0.4,2.4-1.1,3.2c-0.7,0.8-1.8,1.2-3.1,1.2c-1.2,0-2.1-0.3-2.9-1s-1.2-1.5-1.3-2.7h1.6
			c0.1,0.8,0.4,1.3,0.8,1.7c0.4,0.4,1,0.6,1.7,0.6c0.8,0,1.4-0.3,1.8-0.8c0.4-0.5,0.7-1.3,0.7-2.2c0-0.9-0.2-1.6-0.7-2.1
			c-0.5-0.5-1.1-0.8-1.9-0.8c-0.7,0-1.3,0.2-1.7,0.5l-0.4,0.4L331.4,58.8z"/>
			<path class="st1" d="M347.6,59.6c-0.4,0.4-0.8,0.8-1.3,1s-1,0.4-1.6,0.4c-0.8,0-1.4-0.2-2-0.6c-0.6-0.4-1-0.9-1.3-1.6
			s-0.5-1.4-0.5-2.3c0-0.9,0.2-1.7,0.5-2.4s0.8-1.3,1.4-1.6c0.6-0.4,1.3-0.6,2.2-0.6c1.3,0,2.3,0.5,3.1,1.5s1.1,2.3,1.1,4V58
			c0,2.6-0.5,4.5-1.5,5.6s-2.6,1.8-4.6,1.8h-0.3V64h0.4c1.4,0,2.5-0.4,3.2-1.1C347.1,62.2,347.5,61.1,347.6,59.6z M345,59.6
			c0.6,0,1.1-0.2,1.6-0.5c0.5-0.3,0.8-0.8,1-1.3v-0.7c0-1.1-0.2-2-0.7-2.7s-1.1-1-1.8-1c-0.7,0-1.3,0.3-1.8,0.9
			c-0.4,0.6-0.7,1.3-0.7,2.2c0,0.9,0.2,1.6,0.7,2.2C343.7,59.3,344.2,59.6,345,59.6z"/>
	</g>
</g>
	<g id="Layer_2">
	<g>
		<g>
			<path class="st2" d="M422.3,98c-5.1,25-30,39.9-52,34c-14.6-3.9-26-16.5-29.3-31.9"/>
			<g>
				<path class="st3" d="M340.3,85c3.1,6.9,8.1,15.4,13.2,20.6l-12.1-3.6l-11.6,5C334.2,101.3,338.2,92.2,340.3,85z"/>
			</g>
		</g>
	</g>
		<g>
	</g>
		<g>
	</g>
		<g>
	</g>
		<g>
	</g>
		<g>
	</g>
		<g>
	</g>
		<g>
	</g>
		<g>
	</g>
		<g>
	</g>
		<g>
	</g>
		<g>
	</g>
		<g>
	</g>
		<g>
	</g>
		<g>
	</g>
		<g>
	</g>
		<g>
	</g>
</g>
</svg>
