<?xml version="1.0" encoding="utf-8"?>
<!-- Generator: Adobe Illustrator 21.1.0, SVG Export Plug-In . SVG Version: 6.00 Build 0)  -->
<svg version="1.1" xmlns="http://www.w3.org/2000/svg" x="0px" y="0px"
     viewBox="0 0 240 240" style="enable-background:new 0 0 240 240;" xml:space="preserve">
<style type="text/css">
	.st0{fill:#4CAF50;stroke:#FFFFFF;stroke-miterlimit:10;}
	.st1{fill:#4CAF50;fill-opacity:0.6;stroke:#FFFFFF;stroke-miterlimit:10;}
	.st2{fill:#FFFFFF;}
	.st3{fill:none;stroke:#000000;stroke-miterlimit:10;stroke-opacity:0.3;}
</style>
	<g id="Layer_1">
	<rect x="40" y="30" class="st0" width="80" height="40"/>
		<rect x="120" y="30" class="st1" width="80" height="40"/>
		<g>
		<path class="st2" d="M66.6,54h6.3v1.4h-8V42.2h1.8V54z"/>
			<path class="st2" d="M78.7,55.6c-1.3,0-2.4-0.4-3.3-1.3s-1.3-2-1.3-3.5v-0.3c0-1,0.2-1.8,0.6-2.6c0.4-0.8,0.9-1.4,1.6-1.8
			c0.7-0.4,1.4-0.7,2.2-0.7c1.3,0,2.3,0.4,3,1.3c0.7,0.8,1.1,2.1,1.1,3.6V51h-6.7c0,1,0.3,1.8,0.9,2.4c0.5,0.6,1.2,0.9,2.1,0.9
			c0.6,0,1.1-0.1,1.5-0.4s0.8-0.6,1.1-1l1,0.8C81.6,55,80.4,55.6,78.7,55.6z M78.5,46.8c-0.7,0-1.3,0.2-1.7,0.7
			c-0.5,0.5-0.7,1.2-0.9,2.1h4.9v-0.1c0-0.9-0.3-1.5-0.7-2C79.8,47,79.2,46.8,78.5,46.8z"/>
			<path class="st2" d="M87.6,53.2l2.4-7.6h1.7l-3.5,9.8H87l-3.6-9.8h1.7L87.6,53.2z"/>
			<path class="st2" d="M93.4,43c0-0.3,0.1-0.5,0.3-0.7s0.4-0.3,0.7-0.3c0.3,0,0.6,0.1,0.7,0.3s0.3,0.4,0.3,0.7
			c0,0.3-0.1,0.5-0.3,0.7s-0.4,0.3-0.7,0.3c-0.3,0-0.6-0.1-0.7-0.3S93.4,43.3,93.4,43z M95.3,55.4h-1.7v-9.8h1.7V55.4z"/>
	</g>
		<g>
		<path class="st2" d="M143,55.4h-1.7V42.2h1.7V55.4z"/>
			<path class="st2" d="M147.5,45.6l0,1.1c0.7-0.8,1.7-1.3,2.9-1.3c1.4,0,2.3,0.5,2.8,1.6c0.3-0.5,0.8-0.9,1.3-1.1
			c0.5-0.3,1.1-0.4,1.9-0.4c2.2,0,3.3,1.1,3.3,3.4v6.6h-1.7v-6.5c0-0.7-0.2-1.2-0.5-1.6c-0.3-0.3-0.9-0.5-1.6-0.5
			c-0.6,0-1.1,0.2-1.6,0.6c-0.4,0.4-0.7,0.9-0.7,1.5v6.5H152V49c0-1.4-0.7-2.1-2.1-2.1c-1.1,0-1.9,0.5-2.3,1.4v7.2h-1.7v-9.8H147.5z
			"/>
			<path class="st2" d="M168,52.8c0-0.5-0.2-0.8-0.5-1.1s-0.9-0.5-1.8-0.7s-1.5-0.4-2-0.7c-0.5-0.3-0.9-0.6-1.1-0.9
			c-0.2-0.4-0.4-0.8-0.4-1.3c0-0.8,0.3-1.5,1-2c0.7-0.6,1.6-0.8,2.6-0.8c1.1,0,2,0.3,2.7,0.9c0.7,0.6,1,1.3,1,2.2h-1.7
			c0-0.5-0.2-0.9-0.6-1.2c-0.4-0.3-0.9-0.5-1.5-0.5c-0.6,0-1.1,0.1-1.4,0.4s-0.5,0.6-0.5,1c0,0.4,0.2,0.7,0.5,0.9
			c0.3,0.2,0.9,0.4,1.7,0.6c0.8,0.2,1.5,0.4,2,0.7c0.5,0.3,0.9,0.6,1.2,0.9c0.3,0.4,0.4,0.8,0.4,1.3c0,0.9-0.4,1.6-1.1,2.1
			c-0.7,0.5-1.6,0.8-2.7,0.8c-0.8,0-1.5-0.1-2.1-0.4c-0.6-0.3-1.1-0.7-1.4-1.2c-0.3-0.5-0.5-1-0.5-1.6h1.7c0,0.6,0.3,1,0.7,1.3
			s1,0.5,1.7,0.5c0.6,0,1.1-0.1,1.5-0.4C167.8,53.6,168,53.3,168,52.8z"/>
			<path class="st2" d="M175.9,54.3c0.6,0,1.1-0.2,1.6-0.5c0.4-0.4,0.7-0.8,0.7-1.4h1.6c0,0.6-0.2,1.1-0.6,1.6
			c-0.4,0.5-0.8,0.9-1.4,1.2c-0.6,0.3-1.2,0.5-1.9,0.5c-1.3,0-2.4-0.4-3.2-1.3s-1.2-2.1-1.2-3.7v-0.3c0-1,0.2-1.8,0.5-2.6
			c0.4-0.7,0.9-1.3,1.5-1.7s1.4-0.6,2.3-0.6c1.1,0,2,0.3,2.8,1c0.7,0.7,1.1,1.5,1.2,2.6h-1.6c0-0.6-0.3-1.2-0.7-1.6s-1-0.6-1.6-0.6
			c-0.9,0-1.5,0.3-2,0.9s-0.7,1.5-0.7,2.7v0.3c0,1.1,0.2,2,0.7,2.6C174.3,53.9,175,54.3,175.9,54.3z"/>
	</g>
		<line class="st3" x1="120" y1="30.5" x2="120" y2="69.5"/>
		<rect x="40" y="75" class="st0" width="80" height="40"/>
		<rect x="120" y="75" class="st1" width="80" height="40"/>
		<g>
		<path class="st2" d="M72.1,97h-5.6l-1.2,3.5h-1.8l5.1-13.3h1.5l5.1,13.3h-1.8L72.1,97z M67.1,95.5h4.5l-2.3-6.2L67.1,95.5z
			 M70.2,83.7h2l-2.4,2.7l-1.4,0L70.2,83.7z"/>
			<path class="st2" d="M81.5,92.1c-0.3,0-0.5-0.1-0.8-0.1c-1.1,0-1.9,0.5-2.2,1.4v7h-1.7v-9.8h1.6l0,1.1c0.6-0.9,1.3-1.3,2.3-1.3
			c0.3,0,0.6,0,0.7,0.1V92.1z"/>
			<path class="st2" d="M91.3,95.6c0,1.5-0.3,2.7-1,3.6c-0.7,0.9-1.6,1.4-2.8,1.4c-1.2,0-2.1-0.4-2.8-1.1v4.7H83V90.6h1.5l0.1,1.1
			c0.7-0.8,1.6-1.3,2.9-1.3c1.2,0,2.1,0.4,2.8,1.3c0.7,0.9,1,2.1,1,3.7V95.6z M89.7,95.4c0-1.1-0.2-2-0.7-2.6c-0.5-0.6-1.1-1-1.9-1
			c-1,0-1.8,0.5-2.3,1.4v4.7c0.5,0.9,1.3,1.3,2.3,1.3c0.8,0,1.4-0.3,1.9-1C89.4,97.7,89.7,96.7,89.7,95.4z"/>
			<path class="st2" d="M93.5,88c0-0.3,0.1-0.5,0.3-0.7c0.2-0.2,0.4-0.3,0.7-0.3c0.3,0,0.6,0.1,0.7,0.3c0.2,0.2,0.3,0.4,0.3,0.7
			c0,0.3-0.1,0.5-0.3,0.7c-0.2,0.2-0.4,0.3-0.7,0.3c-0.3,0-0.6-0.1-0.7-0.3C93.6,88.5,93.5,88.3,93.5,88z M95.3,100.4h-1.7v-9.8h1.7
			V100.4z"/>
	</g>
		<g>
		<path class="st2" d="M142.6,87.2h1.8v9.4c0,1.3-0.4,2.3-1.1,3c-0.8,0.7-1.8,1.1-3,1.1c-1.3,0-2.3-0.3-3.1-1S136,98,136,96.8h1.7
			c0,0.8,0.2,1.4,0.6,1.8c0.4,0.4,1,0.6,1.8,0.6c0.7,0,1.3-0.2,1.8-0.7s0.7-1.1,0.7-1.9V87.2z"/>
			<path class="st2" d="M153.2,99.5c-0.7,0.8-1.6,1.2-2.9,1.2c-1,0-1.8-0.3-2.4-0.9c-0.5-0.6-0.8-1.5-0.8-2.7v-6.4h1.7V97
			c0,1.5,0.6,2.2,1.8,2.2c1.3,0,2.1-0.5,2.6-1.4v-7.2h1.7v9.8h-1.6L153.2,99.5z"/>
			<path class="st2" d="M159.2,100.4h-1.7v-14h1.7V100.4z"/>
			<path class="st2" d="M165.8,99.3c0.6,0,1.1-0.2,1.6-0.5s0.7-0.8,0.7-1.4h1.6c0,0.6-0.2,1.1-0.6,1.6s-0.8,0.9-1.4,1.2
			c-0.6,0.3-1.2,0.5-1.9,0.5c-1.3,0-2.4-0.4-3.2-1.3c-0.8-0.9-1.2-2.1-1.2-3.7v-0.3c0-1,0.2-1.8,0.5-2.6c0.4-0.7,0.9-1.3,1.5-1.7
			c0.7-0.4,1.4-0.6,2.3-0.6c1.1,0,2,0.3,2.8,1c0.7,0.7,1.1,1.5,1.2,2.6h-1.6c0-0.6-0.3-1.2-0.7-1.6c-0.4-0.4-1-0.6-1.6-0.6
			c-0.9,0-1.5,0.3-2,0.9c-0.5,0.6-0.7,1.5-0.7,2.7v0.3c0,1.1,0.2,2,0.7,2.6C164.3,98.9,165,99.3,165.8,99.3z"/>
			<path class="st2" d="M177.4,97.8c0-0.5-0.2-0.8-0.5-1.1s-0.9-0.5-1.8-0.7c-0.9-0.2-1.5-0.4-2-0.7c-0.5-0.3-0.9-0.6-1.1-0.9
			c-0.2-0.4-0.4-0.8-0.4-1.3c0-0.8,0.3-1.5,1-2s1.6-0.8,2.6-0.8c1.1,0,2,0.3,2.7,0.9c0.7,0.6,1,1.3,1,2.2h-1.7
			c0-0.5-0.2-0.9-0.6-1.2c-0.4-0.3-0.9-0.5-1.5-0.5c-0.6,0-1.1,0.1-1.4,0.4c-0.3,0.3-0.5,0.6-0.5,1c0,0.4,0.2,0.7,0.5,0.9
			c0.3,0.2,0.9,0.4,1.7,0.6c0.8,0.2,1.5,0.4,2,0.7c0.5,0.3,0.9,0.6,1.2,0.9c0.3,0.4,0.4,0.8,0.4,1.3c0,0.9-0.4,1.6-1.1,2.1
			s-1.6,0.8-2.7,0.8c-0.8,0-1.5-0.1-2.1-0.4c-0.6-0.3-1.1-0.7-1.4-1.2s-0.5-1-0.5-1.6h1.7c0,0.6,0.3,1,0.7,1.3
			c0.4,0.3,1,0.5,1.7,0.5c0.6,0,1.1-0.1,1.5-0.4S177.4,98.3,177.4,97.8z"/>
			<path class="st2" d="M181.3,88c0-0.3,0.1-0.5,0.3-0.7c0.2-0.2,0.4-0.3,0.7-0.3s0.6,0.1,0.7,0.3c0.2,0.2,0.3,0.4,0.3,0.7
			c0,0.3-0.1,0.5-0.3,0.7c-0.2,0.2-0.4,0.3-0.7,0.3s-0.6-0.1-0.7-0.3C181.3,88.5,181.3,88.3,181.3,88z M183.1,100.4h-1.7v-9.8h1.7
			V100.4z"/>
	</g>
		<line class="st3" x1="120" y1="75.5" x2="120" y2="114.5"/>
		<rect x="40" y="120" class="st0" width="80" height="40"/>
		<rect x="120" y="120" class="st1" width="80" height="40"/>
		<g>
		<path class="st2" d="M66.6,144h6.3v1.4h-8v-13.3h1.8V144z"/>
			<path class="st2" d="M78.7,145.6c-1.3,0-2.4-0.4-3.3-1.3s-1.3-2-1.3-3.5v-0.3c0-1,0.2-1.8,0.6-2.6c0.4-0.8,0.9-1.4,1.6-1.8
			c0.7-0.4,1.4-0.7,2.2-0.7c1.3,0,2.3,0.4,3,1.3s1.1,2.1,1.1,3.6v0.7h-6.7c0,1,0.3,1.8,0.9,2.4c0.5,0.6,1.2,0.9,2.1,0.9
			c0.6,0,1.1-0.1,1.5-0.4c0.4-0.2,0.8-0.6,1.1-1l1,0.8C81.6,145,80.4,145.6,78.7,145.6z M78.5,136.8c-0.7,0-1.3,0.2-1.7,0.7
			c-0.5,0.5-0.7,1.2-0.9,2.1h4.9v-0.1c0-0.9-0.3-1.5-0.7-2C79.8,137,79.2,136.8,78.5,136.8z"/>
			<path class="st2" d="M87.6,143.2l2.4-7.6h1.7l-3.5,9.8H87l-3.6-9.8h1.7L87.6,143.2z"/>
			<path class="st2" d="M93.4,133c0-0.3,0.1-0.5,0.3-0.7c0.2-0.2,0.4-0.3,0.7-0.3c0.3,0,0.6,0.1,0.7,0.3c0.2,0.2,0.3,0.4,0.3,0.7
			c0,0.3-0.1,0.5-0.3,0.7c-0.2,0.2-0.4,0.3-0.7,0.3c-0.3,0-0.6-0.1-0.7-0.3C93.5,133.5,93.4,133.3,93.4,133z M95.3,145.4h-1.7v-9.8
			h1.7V145.4z"/>
	</g>
		<g>
		<path class="st2" d="M151.7,145.4H150l-6.7-10.2v10.2h-1.8v-13.3h1.8l6.7,10.3v-10.3h1.7V145.4z"/>
			<path class="st2" d="M154.1,140.4c0-1,0.2-1.8,0.6-2.6c0.4-0.8,0.9-1.4,1.6-1.8c0.7-0.4,1.4-0.6,2.3-0.6c1.3,0,2.4,0.5,3.3,1.4
			c0.8,0.9,1.2,2.2,1.2,3.7v0.1c0,1-0.2,1.8-0.6,2.6s-0.9,1.4-1.6,1.8s-1.5,0.6-2.4,0.6c-1.3,0-2.4-0.5-3.2-1.4
			c-0.8-0.9-1.2-2.2-1.2-3.7V140.4z M155.8,140.6c0,1.1,0.3,2,0.8,2.6c0.5,0.7,1.2,1,2,1c0.9,0,1.5-0.3,2-1c0.5-0.7,0.8-1.6,0.8-2.8
			c0-1.1-0.3-2-0.8-2.6c-0.5-0.7-1.2-1-2-1c-0.8,0-1.5,0.3-2,1C156.1,138.5,155.8,139.4,155.8,140.6z M159.3,131.5h2l-2.4,2.7
			l-1.4,0L159.3,131.5z"/>
			<path class="st2" d="M170,137.1c-0.3,0-0.5-0.1-0.8-0.1c-1.1,0-1.9,0.5-2.2,1.4v7h-1.7v-9.8h1.6l0,1.1c0.6-0.9,1.3-1.3,2.3-1.3
			c0.3,0,0.6,0,0.7,0.1V137.1z"/>
			<path class="st2" d="M177.2,145.4c-0.1-0.2-0.2-0.5-0.2-1c-0.8,0.8-1.7,1.2-2.8,1.2c-1,0-1.8-0.3-2.4-0.8
			c-0.6-0.5-0.9-1.2-0.9-2.1c0-1,0.4-1.8,1.2-2.4c0.8-0.6,1.9-0.9,3.3-0.9h1.6v-0.8c0-0.6-0.2-1.1-0.5-1.4c-0.4-0.3-0.9-0.5-1.6-0.5
			c-0.6,0-1.1,0.2-1.5,0.5c-0.4,0.3-0.6,0.7-0.6,1.1h-1.7c0-0.5,0.2-1,0.5-1.4c0.3-0.5,0.8-0.8,1.4-1.1c0.6-0.3,1.3-0.4,2-0.4
			c1.1,0,2,0.3,2.7,0.9s1,1.3,1,2.3v4.5c0,0.9,0.1,1.6,0.3,2.2v0.1H177.2z M174.4,144.2c0.5,0,1-0.1,1.5-0.4c0.5-0.3,0.8-0.6,1-1.1
			v-2h-1.3c-2.1,0-3.1,0.6-3.1,1.8c0,0.5,0.2,0.9,0.5,1.2C173.4,144,173.9,144.2,174.4,144.2z"/>
	</g>
		<line class="st3" x1="120" y1="120.5" x2="120" y2="159.5"/>
		<rect x="40" y="165" class="st0" width="80" height="40"/>
		<rect x="120" y="165" class="st1" width="80" height="40"/>
		<g>
		<path class="st2" d="M63,184.5c-1.5-0.4-2.6-1-3.3-1.6s-1-1.4-1-2.3c0-1,0.4-1.9,1.3-2.6s1.9-1,3.3-1c0.9,0,1.7,0.2,2.4,0.5
			c0.7,0.4,1.3,0.8,1.7,1.5c0.4,0.6,0.6,1.3,0.6,2h-1.8c0-0.8-0.3-1.4-0.8-1.9s-1.2-0.7-2.2-0.7c-0.9,0-1.5,0.2-2,0.6
			s-0.7,0.9-0.7,1.6c0,0.5,0.2,1,0.7,1.4s1.2,0.7,2.3,1c1.1,0.3,2,0.7,2.6,1c0.6,0.4,1.1,0.8,1.4,1.3c0.3,0.5,0.5,1.1,0.5,1.8
			c0,1.1-0.4,1.9-1.3,2.6s-2,1-3.4,1c-0.9,0-1.8-0.2-2.5-0.5c-0.8-0.3-1.4-0.8-1.8-1.4c-0.4-0.6-0.6-1.3-0.6-2.1h1.8
			c0,0.8,0.3,1.4,0.9,1.9c0.6,0.5,1.4,0.7,2.4,0.7c0.9,0,1.6-0.2,2.1-0.6c0.5-0.4,0.7-0.9,0.7-1.5s-0.2-1.2-0.7-1.5
			C65,185.2,64.2,184.9,63,184.5z"/>
			<path class="st2" d="M76,190.4c-0.1-0.2-0.2-0.5-0.2-1c-0.8,0.8-1.7,1.2-2.8,1.2c-1,0-1.8-0.3-2.4-0.8c-0.6-0.5-0.9-1.2-0.9-2.1
			c0-1,0.4-1.8,1.2-2.4c0.8-0.6,1.9-0.9,3.3-0.9h1.6v-0.8c0-0.6-0.2-1.1-0.5-1.4c-0.4-0.3-0.9-0.5-1.6-0.5c-0.6,0-1.1,0.2-1.5,0.5
			c-0.4,0.3-0.6,0.7-0.6,1.1h-1.7c0-0.5,0.2-1,0.5-1.4c0.3-0.5,0.8-0.8,1.4-1.1c0.6-0.3,1.3-0.4,2-0.4c1.1,0,2,0.3,2.7,0.9
			c0.6,0.6,1,1.3,1,2.3v4.5c0,0.9,0.1,1.6,0.3,2.2v0.1H76z M73.2,189.2c0.5,0,1-0.1,1.5-0.4c0.5-0.3,0.8-0.6,1-1.1v-2h-1.3
			c-2.1,0-3.1,0.6-3.1,1.8c0,0.5,0.2,0.9,0.5,1.2C72.2,189,72.7,189.2,73.2,189.2z"/>
			<path class="st2" d="M81.7,180.6l0.1,1.2c0.8-0.9,1.7-1.4,2.9-1.4c2.1,0,3.1,1.2,3.1,3.5v6.5h-1.7v-6.5c0-0.7-0.2-1.2-0.5-1.6
			c-0.3-0.3-0.8-0.5-1.5-0.5c-0.5,0-1,0.1-1.4,0.4s-0.7,0.7-1,1.1v7h-1.7v-9.8H81.7z"/>
			<path class="st2" d="M93.6,188l2.3-7.4h1.8l-4,11.4c-0.6,1.6-1.6,2.5-2.9,2.5l-0.3,0l-0.6-0.1v-1.4l0.5,0c0.6,0,1-0.1,1.3-0.3
			c0.3-0.2,0.6-0.7,0.8-1.3l0.4-1l-3.5-9.7h1.8L93.6,188z"/>
			<path class="st2" d="M99.2,178c0-0.3,0.1-0.5,0.3-0.7c0.2-0.2,0.4-0.3,0.7-0.3c0.3,0,0.6,0.1,0.7,0.3c0.2,0.2,0.3,0.4,0.3,0.7
			c0,0.3-0.1,0.5-0.3,0.7c-0.2,0.2-0.4,0.3-0.7,0.3c-0.3,0-0.6-0.1-0.7-0.3C99.3,178.5,99.2,178.3,99.2,178z M101,190.4h-1.7v-9.8
			h1.7V190.4z"/>
	</g>
		<g>
		<path class="st2" d="M155.3,187h-5.6l-1.2,3.5h-1.8l5.1-13.3h1.5l5.1,13.3h-1.8L155.3,187z M150.3,185.5h4.5l-2.3-6.2L150.3,185.5
			z M153.4,173.7h2l-2.4,2.7l-1.4,0L153.4,173.7z"/>
			<path class="st2" d="M159.5,185.4c0-1.5,0.4-2.8,1.1-3.7s1.7-1.4,2.8-1.4c1.2,0,2.1,0.4,2.8,1.3l0.1-1.1h1.5v9.6
			c0,1.3-0.4,2.3-1.1,3c-0.8,0.7-1.8,1.1-3,1.1c-0.7,0-1.4-0.2-2.1-0.5s-1.2-0.7-1.6-1.2l0.9-1c0.7,0.9,1.6,1.3,2.6,1.3
			c0.8,0,1.5-0.2,1.9-0.7c0.5-0.5,0.7-1.1,0.7-1.9v-0.8c-0.7,0.8-1.6,1.2-2.8,1.2c-1.2,0-2.1-0.5-2.8-1.4
			C159.8,188.3,159.5,187,159.5,185.4z M161.2,185.6c0,1.1,0.2,2,0.7,2.6c0.5,0.6,1.1,1,1.9,1c1.1,0,1.8-0.5,2.3-1.4v-4.5
			c-0.5-0.9-1.3-1.4-2.3-1.4c-0.8,0-1.5,0.3-1.9,1C161.4,183.4,161.2,184.4,161.2,185.6z"/>
			<path class="st2" d="M170.3,178c0-0.3,0.1-0.5,0.3-0.7c0.2-0.2,0.4-0.3,0.7-0.3s0.6,0.1,0.7,0.3c0.2,0.2,0.3,0.4,0.3,0.7
			c0,0.3-0.1,0.5-0.3,0.7c-0.2,0.2-0.4,0.3-0.7,0.3s-0.6-0.1-0.7-0.3C170.4,178.5,170.3,178.3,170.3,178z M172.2,190.4h-1.7v-9.8
			h1.7V190.4z"/>
	</g>
		<line class="st3" x1="120" y1="165.5" x2="120" y2="204.5"/>
</g>
	<g id="Layer_2">
	<g>
	</g>
		<g>
	</g>
		<g>
	</g>
		<g>
	</g>
		<g>
	</g>
		<g>
	</g>
		<g>
	</g>
		<g>
	</g>
		<g>
	</g>
		<g>
	</g>
		<g>
	</g>
		<g>
	</g>
		<g>
	</g>
		<g>
	</g>
		<g>
	</g>
</g>
</svg>
