<?xml version="1.0" encoding="utf-8"?>
<!-- Generator: Adobe Illustrator 21.1.0, SVG Export Plug-In . SVG Version: 6.00 Build 0)  -->
<svg version="1.1" xmlns="http://www.w3.org/2000/svg" x="0px" y="0px"
     viewBox="0 0 440 160" style="enable-background:new 0 0 440 160;" xml:space="preserve">
<style type="text/css">
	.st0{fill:#4CAF50;stroke:#FFFFFF;stroke-miterlimit:10;}
	.st1{fill:#FFFFFF;}
	.st2{fill:none;stroke:#333391;stroke-width:2;stroke-linejoin:bevel;}
	.st3{fill:#333391;}
	.st4{fill:none;stroke:#C1272D;stroke-linejoin:bevel;}
	.st5{fill:#C1272D;}
</style>
	<g id="Layer_1">
	<rect x="200" y="40" class="st0" width="40" height="40"/>
		<rect x="240" y="40" class="st0" width="40" height="40"/>
		<rect x="280" y="40" class="st0" width="40" height="40"/>
		<rect x="320" y="40" class="st0" width="40" height="40"/>
		<rect x="40" y="40" class="st0" width="40" height="40"/>
		<rect x="160" y="40" class="st0" width="40" height="40"/>
		<rect x="80" y="40" class="st0" width="40" height="40"/>
		<rect x="120" y="40" class="st0" width="40" height="40"/>
		<g>
		<path class="st1" d="M59.2,53.1l-5.5,12.3h-1.8l5.5-11.9h-7.2v-1.4h9V53.1z"/>
			<path class="st1" d="M61.9,58.8l0.7-6.6h6.8v1.6H64l-0.4,3.6c0.6-0.4,1.4-0.6,2.2-0.6c1.2,0,2.2,0.4,2.9,1.2
			c0.7,0.8,1.1,1.9,1.1,3.2c0,1.4-0.4,2.4-1.1,3.2c-0.7,0.8-1.8,1.2-3.1,1.2c-1.2,0-2.1-0.3-2.9-1s-1.2-1.5-1.3-2.7H63
			c0.1,0.8,0.4,1.3,0.8,1.7c0.4,0.4,1,0.6,1.7,0.6c0.8,0,1.4-0.3,1.8-0.8c0.4-0.5,0.7-1.3,0.7-2.2c0-0.9-0.2-1.6-0.7-2.1
			c-0.5-0.5-1.1-0.8-1.9-0.8c-0.7,0-1.3,0.2-1.7,0.5l-0.4,0.4L61.9,58.8z"/>
	</g>
		<g>
		<path class="st1" d="M97.2,52.2v1.4h-0.3c-1.3,0-2.4,0.4-3.1,1.2s-1.2,1.8-1.3,3.2c0.7-0.8,1.7-1.2,2.9-1.2c1.2,0,2.1,0.4,2.8,1.2
			c0.7,0.8,1,1.9,1,3.1c0,1.4-0.4,2.5-1.1,3.3s-1.7,1.2-3,1.2c-1.3,0-2.3-0.5-3.1-1.5c-0.8-1-1.2-2.2-1.2-3.8v-0.6
			c0-2.4,0.5-4.3,1.6-5.6c1-1.3,2.6-1.9,4.6-2H97.2z M95,58.2c-0.6,0-1.1,0.2-1.6,0.5c-0.5,0.3-0.8,0.8-1,1.3v0.6
			c0,1.1,0.2,2,0.7,2.6c0.5,0.7,1.1,1,1.8,1c0.8,0,1.4-0.3,1.8-0.8c0.4-0.6,0.7-1.3,0.7-2.2c0-0.9-0.2-1.6-0.7-2.2
			C96.3,58.4,95.8,58.2,95,58.2z"/>
			<path class="st1" d="M106.6,65.4h-1.7V54.2l-3.4,1.2v-1.5l4.8-1.8h0.3V65.4z"/>
	</g>
		<g>
		<path class="st1" d="M138.7,55.7c0,0.7-0.2,1.3-0.5,1.8c-0.3,0.5-0.8,0.9-1.4,1.2c0.7,0.3,1.2,0.7,1.6,1.3
			c0.4,0.6,0.6,1.2,0.6,1.9c0,1.1-0.4,2.1-1.2,2.7c-0.8,0.7-1.8,1-3.1,1c-1.3,0-2.3-0.3-3.1-1s-1.2-1.6-1.2-2.7
			c0-0.7,0.2-1.4,0.6-1.9c0.4-0.6,0.9-1,1.6-1.3c-0.6-0.3-1.1-0.7-1.4-1.2s-0.5-1.1-0.5-1.8c0-1.1,0.4-2,1.1-2.7
			c0.7-0.7,1.7-1,2.8-1c1.2,0,2.1,0.3,2.8,1S138.7,54.5,138.7,55.7z M137.3,61.8c0-0.7-0.2-1.3-0.7-1.8s-1.1-0.7-1.8-0.7
			s-1.4,0.2-1.8,0.7c-0.5,0.5-0.7,1.1-0.7,1.8c0,0.8,0.2,1.3,0.7,1.8c0.4,0.4,1.1,0.6,1.9,0.6c0.8,0,1.4-0.2,1.9-0.7
			C137.1,63.2,137.3,62.6,137.3,61.8z M134.8,53.4c-0.7,0-1.2,0.2-1.6,0.6s-0.6,1-0.6,1.7c0,0.7,0.2,1.2,0.6,1.6
			c0.4,0.4,0.9,0.6,1.6,0.6c0.7,0,1.2-0.2,1.6-0.6c0.4-0.4,0.6-1,0.6-1.6c0-0.7-0.2-1.2-0.6-1.6C135.9,53.6,135.4,53.4,134.8,53.4z"
		/>
			<path class="st1" d="M149.8,65.4h-8.7v-1.2l4.6-5.1c0.7-0.8,1.1-1.4,1.4-1.9c0.3-0.5,0.4-1,0.4-1.5c0-0.7-0.2-1.3-0.6-1.7
			c-0.4-0.4-1-0.7-1.7-0.7c-0.8,0-1.5,0.2-2,0.7c-0.5,0.5-0.7,1.1-0.7,2h-1.7c0-1.2,0.4-2.2,1.2-3c0.8-0.8,1.8-1.1,3.2-1.1
			c1.2,0,2.2,0.3,2.9,1c0.7,0.6,1.1,1.5,1.1,2.6c0,1.3-0.8,2.9-2.5,4.7l-3.6,3.9h6.7V65.4z"/>
	</g>
		<g>
		<path class="st1" d="M176.2,65.4h-1.7V54.2l-3.4,1.2v-1.5l4.8-1.8h0.3V65.4z"/>
			<path class="st1" d="M189.7,53.1l-5.5,12.3h-1.8l5.5-11.9h-7.2v-1.4h9V53.1z"/>
	</g>
		<g>
		<path class="st1" d="M219.2,53.1l-5.5,12.3h-1.8l5.5-11.9h-7.2v-1.4h9V53.1z"/>
			<path class="st1" d="M226.6,65.4h-1.7V54.2l-3.4,1.2v-1.5l4.8-1.8h0.3V65.4z"/>
	</g>
		<g>
		<path class="st1" d="M257.1,59.6c-0.4,0.4-0.8,0.8-1.3,1s-1,0.4-1.6,0.4c-0.8,0-1.4-0.2-2-0.6c-0.6-0.4-1-0.9-1.3-1.6
			c-0.3-0.7-0.5-1.4-0.5-2.3c0-0.9,0.2-1.7,0.5-2.4c0.3-0.7,0.8-1.3,1.4-1.6c0.6-0.4,1.3-0.6,2.2-0.6c1.3,0,2.3,0.5,3.1,1.5
			c0.8,1,1.1,2.3,1.1,4V58c0,2.6-0.5,4.5-1.5,5.6s-2.6,1.8-4.6,1.8h-0.3V64h0.4c1.4,0,2.5-0.4,3.2-1.1
			C256.6,62.2,257,61.1,257.1,59.6z M254.5,59.6c0.6,0,1.1-0.2,1.6-0.5c0.5-0.3,0.8-0.8,1-1.3v-0.7c0-1.1-0.2-2-0.7-2.7
			c-0.5-0.7-1.1-1-1.8-1c-0.7,0-1.3,0.3-1.8,0.9c-0.4,0.6-0.7,1.3-0.7,2.2c0,0.9,0.2,1.6,0.7,2.2S253.8,59.6,254.5,59.6z"/>
			<path class="st1" d="M269.8,65.4h-8.7v-1.2l4.6-5.1c0.7-0.8,1.1-1.4,1.4-1.9s0.4-1,0.4-1.5c0-0.7-0.2-1.3-0.6-1.7
			c-0.4-0.4-1-0.7-1.7-0.7c-0.8,0-1.5,0.2-2,0.7s-0.7,1.1-0.7,2h-1.7c0-1.2,0.4-2.2,1.2-3c0.8-0.8,1.8-1.1,3.2-1.1
			c1.2,0,2.2,0.3,2.9,1c0.7,0.6,1.1,1.5,1.1,2.6c0,1.3-0.8,2.9-2.5,4.7l-3.5,3.9h6.7V65.4z"/>
	</g>
		<g>
		<path class="st1" d="M302.5,52.2v1.4h-0.3c-1.3,0-2.4,0.4-3.1,1.2c-0.8,0.8-1.2,1.8-1.3,3.2c0.7-0.8,1.7-1.2,2.9-1.2
			c1.2,0,2.1,0.4,2.8,1.2c0.7,0.8,1,1.9,1,3.1c0,1.4-0.4,2.5-1.1,3.3s-1.7,1.2-3,1.2c-1.3,0-2.3-0.5-3.1-1.5c-0.8-1-1.2-2.2-1.2-3.8
			v-0.6c0-2.4,0.5-4.3,1.6-5.6s2.6-1.9,4.6-2H302.5z M300.3,58.2c-0.6,0-1.1,0.2-1.6,0.5c-0.5,0.3-0.8,0.8-1,1.3v0.6
			c0,1.1,0.2,2,0.7,2.6c0.5,0.7,1.1,1,1.8,1c0.8,0,1.4-0.3,1.8-0.8c0.4-0.6,0.7-1.3,0.7-2.2c0-0.9-0.2-1.6-0.7-2.2
			C301.6,58.4,301,58.2,300.3,58.2z"/>
	</g>
		<g>
		<path class="st1" d="M333.1,58h1.3c0.8,0,1.4-0.2,1.9-0.6c0.5-0.4,0.7-1,0.7-1.6c0-1.6-0.8-2.3-2.3-2.3c-0.7,0-1.3,0.2-1.7,0.6
			c-0.4,0.4-0.7,1-0.7,1.7h-1.7c0-1,0.4-1.9,1.2-2.6c0.8-0.7,1.7-1,2.9-1c1.3,0,2.2,0.3,2.9,1s1.1,1.6,1.1,2.8
			c0,0.6-0.2,1.1-0.6,1.7s-0.9,0.9-1.5,1.2c0.7,0.2,1.3,0.6,1.7,1.1c0.4,0.5,0.6,1.2,0.6,2c0,1.2-0.4,2.1-1.2,2.8
			c-0.8,0.7-1.8,1-3,1s-2.3-0.3-3-1s-1.2-1.6-1.2-2.7h1.7c0,0.7,0.2,1.3,0.7,1.7s1.1,0.6,1.8,0.6c0.8,0,1.4-0.2,1.9-0.6
			c0.4-0.4,0.6-1,0.6-1.8c0-0.8-0.2-1.4-0.7-1.8c-0.5-0.4-1.2-0.6-2-0.6h-1.3V58z"/>
			<path class="st1" d="M349.1,55.7c0,0.7-0.2,1.3-0.5,1.8c-0.3,0.5-0.8,0.9-1.4,1.2c0.7,0.3,1.2,0.7,1.6,1.3
			c0.4,0.6,0.6,1.2,0.6,1.9c0,1.1-0.4,2.1-1.2,2.7c-0.8,0.7-1.8,1-3.1,1c-1.3,0-2.3-0.3-3.1-1S341,63,341,61.9
			c0-0.7,0.2-1.4,0.6-1.9c0.4-0.6,0.9-1,1.6-1.3c-0.6-0.3-1.1-0.7-1.4-1.2s-0.5-1.1-0.5-1.8c0-1.1,0.4-2,1.1-2.7
			c0.7-0.7,1.7-1,2.8-1c1.2,0,2.1,0.3,2.8,1C348.8,53.7,349.1,54.5,349.1,55.7z M347.8,61.8c0-0.7-0.2-1.3-0.7-1.8s-1.1-0.7-1.8-0.7
			c-0.8,0-1.4,0.2-1.8,0.7c-0.5,0.5-0.7,1.1-0.7,1.8c0,0.8,0.2,1.3,0.7,1.8c0.4,0.4,1.1,0.6,1.9,0.6c0.8,0,1.4-0.2,1.9-0.7
			C347.5,63.2,347.8,62.6,347.8,61.8z M345.2,53.4c-0.7,0-1.2,0.2-1.6,0.6s-0.6,1-0.6,1.7c0,0.7,0.2,1.2,0.6,1.6
			c0.4,0.4,0.9,0.6,1.6,0.6s1.2-0.2,1.6-0.6c0.4-0.4,0.6-1,0.6-1.6c0-0.7-0.2-1.2-0.6-1.6C346.4,53.6,345.9,53.4,345.2,53.4z"/>
	</g>
		<g>
		<g>
			<path class="st2" d="M340,88c5.1,25,30,39.9,52,34c14.6-3.9,26-16.5,29.3-31.9"/>
			<g>
				<path class="st3" d="M422,75c2.2,7.2,6.1,16.3,10.6,22.1L421,92l-12.1,3.6C413.9,90.4,418.9,81.9,422,75z"/>
			</g>
		</g>
	</g>
		<g>
		<g>
			<path class="st4" d="M54.2,86.8c-4.5,1.1-10.2,2-16.7,1.7c-7.3-0.3-13.3-2-17.5-3.5"/>
			<g>
				<path class="st5" d="M60,85c-3-0.2-6.9-0.9-9.5-2.2l3,4.1l-0.3,5C54.7,89.5,57.6,86.8,60,85z"/>
			</g>
		</g>
	</g>
		<g>
		<g>
			<path class="st4" d="M94.5,87.6c-6.9,3-16.5,6.1-28,6.9c-22.1,1.6-39-5.7-46.5-9.5"/>
			<g>
				<path class="st5" d="M100,85c-3,0.3-7,0.1-9.8-0.7l3.6,3.6l0.5,5C95.4,90.3,97.9,87.2,100,85z"/>
			</g>
		</g>
	</g>
		<g>
		<g>
			<path class="st4" d="M135.1,88.5c-9.7,6.5-29.2,17.1-55.6,17C48,105.3,26.5,90,20,85"/>
			<g>
				<path class="st5" d="M140,85c-2.9,0.8-6.8,1.4-9.7,1.1l4.2,2.9l1.3,4.9C136.5,91,138.3,87.5,140,85z"/>
			</g>
		</g>
	</g>
		<g>
		<g>
			<path class="st4" d="M175.5,89c-10.5,8.8-30.2,22.4-58,26.5C64.4,123.4,25.8,90.2,20,85"/>
			<g>
				<path class="st5" d="M180,85c-2.8,1.1-6.7,2-9.6,2l4.4,2.5l1.8,4.7C177.1,91.3,178.6,87.7,180,85z"/>
			</g>
		</g>
	</g>
		<g>
		<g>
			<path class="st4" d="M216.2,89.7c-11.3,13.1-46,47.3-99.7,45.8C57.5,133.8,24,90.4,20,85"/>
			<g>
				<path class="st5" d="M220,85c-2.6,1.5-6.3,3.1-9.1,3.5l4.8,1.7l2.6,4.4C218.1,91.7,219,87.9,220,85z"/>
			</g>
		</g>
	</g>
		<g>
		<path class="st5" d="M6.1,80v-5.5h-1v-0.8h1V73c0-0.7,0.2-1.2,0.5-1.6s0.9-0.6,1.5-0.6c0.3,0,0.5,0,0.7,0.1l-0.1,0.9
			c-0.2,0-0.4-0.1-0.6-0.1c-0.4,0-0.6,0.1-0.8,0.3S7.2,72.6,7.2,73v0.7h1.4v0.8H7.2V80H6.1z"/>
			<path class="st5" d="M9.7,76.5c0-0.9,0.1-1.7,0.4-2.5s0.6-1.6,1.1-2.2s1-1.1,1.5-1.4l0.2,0.7c-0.6,0.4-1,1.1-1.4,2s-0.6,1.9-0.6,3
			l0,0.5c0,1.5,0.3,2.8,0.8,3.9c0.3,0.7,0.7,1.2,1.2,1.6l-0.2,0.7c-0.5-0.3-1-0.8-1.5-1.5C10.2,80,9.7,78.4,9.7,76.5z"/>
			<path class="st5" d="M16,76l1.4-2.3h1.3l-2.1,3.1l2.1,3.2h-1.3L16,77.6L14.5,80h-1.3l2.1-3.2l-2.1-3.1h1.3L16,76z"/>
			<path class="st5" d="M19.8,81.7l-0.6-0.4c0.4-0.5,0.6-1,0.6-1.6v-1h1.1v0.8c0,0.4-0.1,0.8-0.3,1.2S20,81.5,19.8,81.7z"/>
			<path class="st5" d="M27.2,78.4l1.5-4.8h1.2L27.3,81c-0.4,1.1-1,1.6-1.9,1.6l-0.2,0l-0.4-0.1v-0.9l0.3,0c0.4,0,0.7-0.1,0.9-0.2
			s0.4-0.4,0.5-0.8l0.2-0.6l-2.3-6.3h1.2L27.2,78.4z"/>
			<path class="st5" d="M33.3,76.6c0,0.9-0.1,1.7-0.3,2.5s-0.6,1.5-1,2.2s-1,1.2-1.5,1.4l-0.2-0.7c0.6-0.5,1.1-1.2,1.5-2.1
			s0.6-2,0.6-3.2v-0.2c0-0.8-0.1-1.6-0.3-2.3s-0.4-1.3-0.7-1.9s-0.7-1-1-1.3l0.2-0.7c0.5,0.3,1,0.8,1.5,1.4s0.8,1.4,1,2.2
			S33.3,75.7,33.3,76.6z"/>
	</g>
</g>
	<g id="Layer_2">
	<g>
	</g>
		<g>
	</g>
		<g>
	</g>
		<g>
	</g>
		<g>
	</g>
		<g>
	</g>
		<g>
	</g>
		<g>
	</g>
		<g>
	</g>
		<g>
	</g>
		<g>
	</g>
		<g>
	</g>
		<g>
	</g>
		<g>
	</g>
		<g>
	</g>
		<g>
	</g>
</g>
</svg>
