<?xml version="1.0" encoding="utf-8"?>
<!-- Generator: Adobe Illustrator 21.1.0, SVG Export Plug-In . SVG Version: 6.00 Build 0)  -->
<svg version="1.1" xmlns="http://www.w3.org/2000/svg" x="0px" y="0px"
     viewBox="0 0 480 160" style="enable-background:new 0 0 480 160;" xml:space="preserve">
<style type="text/css">
	.st0{fill:#4CAF50;stroke:#FFFFFF;stroke-miterlimit:10;}
	.st1{fill:#FFFFFF;}
	.st2{fill:none;stroke:#C1272D;stroke-width:2;stroke-linejoin:bevel;}
	.st3{fill:#C1272D;}
	.st4{fill:none;stroke:#333391;stroke-width:2;stroke-linejoin:bevel;}
	.st5{fill:#333391;}
</style>
	<g id="Layer_1">
	<rect x="240" y="40" class="st0" width="40" height="40"/>
		<rect x="280" y="40" class="st0" width="40" height="40"/>
		<rect x="320" y="40" class="st0" width="40" height="40"/>
		<rect x="360" y="40" class="st0" width="40" height="40"/>
		<rect x="80" y="40" class="st0" width="40" height="40"/>
		<rect x="200" y="40" class="st0" width="40" height="40"/>
		<rect x="120" y="40" class="st0" width="40" height="40"/>
		<rect x="160" y="40" class="st0" width="40" height="40"/>
		<g>
		<path class="st1" d="M97.1,59.6c-0.4,0.4-0.8,0.8-1.3,1s-1,0.4-1.6,0.4c-0.8,0-1.4-0.2-2-0.6c-0.6-0.4-1-0.9-1.3-1.6
			s-0.5-1.4-0.5-2.3c0-0.9,0.2-1.7,0.5-2.4s0.8-1.3,1.4-1.6c0.6-0.4,1.3-0.6,2.2-0.6c1.3,0,2.3,0.5,3.1,1.5c0.8,1,1.1,2.3,1.1,4V58
			c0,2.6-0.5,4.5-1.5,5.6s-2.6,1.8-4.6,1.8h-0.3V64h0.4c1.4,0,2.5-0.4,3.2-1.1C96.6,62.2,97,61.1,97.1,59.6z M94.5,59.6
			c0.6,0,1.1-0.2,1.6-0.5c0.5-0.3,0.8-0.8,1-1.3v-0.7c0-1.1-0.2-2-0.7-2.7s-1.1-1-1.8-1c-0.7,0-1.3,0.3-1.8,0.9
			c-0.4,0.6-0.7,1.3-0.7,2.2c0,0.9,0.2,1.6,0.7,2.2S93.8,59.6,94.5,59.6z"/>
			<path class="st1" d="M109.8,65.4h-8.7v-1.2l4.6-5.1c0.7-0.8,1.1-1.4,1.4-1.9c0.3-0.5,0.4-1,0.4-1.5c0-0.7-0.2-1.3-0.6-1.7
			c-0.4-0.4-1-0.7-1.7-0.7c-0.8,0-1.5,0.2-2,0.7c-0.5,0.5-0.7,1.1-0.7,2h-1.7c0-1.2,0.4-2.2,1.2-3c0.8-0.8,1.8-1.1,3.2-1.1
			c1.2,0,2.2,0.3,2.9,1c0.7,0.6,1.1,1.5,1.1,2.6c0,1.3-0.8,2.9-2.5,4.7l-3.6,3.9h6.7V65.4z"/>
	</g>
		<g>
		<path class="st1" d="M138.7,55.7c0,0.7-0.2,1.3-0.5,1.8c-0.3,0.5-0.8,0.9-1.4,1.2c0.7,0.3,1.2,0.7,1.6,1.3
			c0.4,0.6,0.6,1.2,0.6,1.9c0,1.1-0.4,2.1-1.2,2.7c-0.8,0.7-1.8,1-3.1,1c-1.3,0-2.3-0.3-3.1-1s-1.2-1.6-1.2-2.7
			c0-0.7,0.2-1.4,0.6-1.9c0.4-0.6,0.9-1,1.6-1.3c-0.6-0.3-1.1-0.7-1.4-1.2s-0.5-1.1-0.5-1.8c0-1.1,0.4-2,1.1-2.7
			c0.7-0.7,1.7-1,2.8-1c1.2,0,2.1,0.3,2.8,1S138.7,54.5,138.7,55.7z M137.3,61.8c0-0.7-0.2-1.3-0.7-1.8s-1.1-0.7-1.8-0.7
			s-1.4,0.2-1.8,0.7c-0.5,0.5-0.7,1.1-0.7,1.8c0,0.8,0.2,1.3,0.7,1.8c0.4,0.4,1.1,0.6,1.9,0.6c0.8,0,1.4-0.2,1.9-0.7
			C137.1,63.2,137.3,62.6,137.3,61.8z M134.8,53.4c-0.7,0-1.2,0.2-1.6,0.6s-0.6,1-0.6,1.7c0,0.7,0.2,1.2,0.6,1.6
			c0.4,0.4,0.9,0.6,1.6,0.6c0.7,0,1.2-0.2,1.6-0.6c0.4-0.4,0.6-1,0.6-1.6c0-0.7-0.2-1.2-0.6-1.6C135.9,53.6,135.4,53.4,134.8,53.4z"
		/>
			<path class="st1" d="M143.6,58h1.3c0.8,0,1.4-0.2,1.9-0.6c0.5-0.4,0.7-1,0.7-1.6c0-1.6-0.8-2.3-2.3-2.3c-0.7,0-1.3,0.2-1.7,0.6
			c-0.4,0.4-0.7,1-0.7,1.7H141c0-1,0.4-1.9,1.2-2.6c0.8-0.7,1.7-1,2.9-1c1.3,0,2.2,0.3,2.9,1s1.1,1.6,1.1,2.8c0,0.6-0.2,1.1-0.6,1.7
			c-0.4,0.5-0.9,0.9-1.5,1.2c0.7,0.2,1.3,0.6,1.7,1.1c0.4,0.5,0.6,1.2,0.6,2c0,1.2-0.4,2.1-1.2,2.8c-0.8,0.7-1.8,1-3,1s-2.3-0.3-3-1
			s-1.2-1.6-1.2-2.7h1.7c0,0.7,0.2,1.3,0.7,1.7s1.1,0.6,1.8,0.6c0.8,0,1.4-0.2,1.9-0.6c0.4-0.4,0.6-1,0.6-1.8c0-0.8-0.2-1.4-0.7-1.8
			c-0.5-0.4-1.2-0.6-2-0.6h-1.3V58z"/>
	</g>
		<g>
		<path class="st1" d="M177.1,59.6c-0.4,0.4-0.8,0.8-1.3,1s-1,0.4-1.6,0.4c-0.8,0-1.4-0.2-2-0.6c-0.6-0.4-1-0.9-1.3-1.6
			s-0.5-1.4-0.5-2.3c0-0.9,0.2-1.7,0.5-2.4s0.8-1.3,1.4-1.6c0.6-0.4,1.3-0.6,2.2-0.6c1.3,0,2.3,0.5,3.1,1.5c0.8,1,1.1,2.3,1.1,4V58
			c0,2.6-0.5,4.5-1.5,5.6s-2.6,1.8-4.6,1.8h-0.3V64h0.4c1.4,0,2.5-0.4,3.2-1.1C176.6,62.2,177,61.1,177.1,59.6z M174.5,59.6
			c0.6,0,1.1-0.2,1.6-0.5c0.5-0.3,0.8-0.8,1-1.3v-0.7c0-1.1-0.2-2-0.7-2.7s-1.1-1-1.8-1c-0.7,0-1.3,0.3-1.8,0.9
			c-0.4,0.6-0.7,1.3-0.7,2.2c0,0.9,0.2,1.6,0.7,2.2S173.8,59.6,174.5,59.6z"/>
			<path class="st1" d="M189.1,55.7c0,0.7-0.2,1.3-0.5,1.8c-0.3,0.5-0.8,0.9-1.4,1.2c0.7,0.3,1.2,0.7,1.6,1.3
			c0.4,0.6,0.6,1.2,0.6,1.9c0,1.1-0.4,2.1-1.2,2.7c-0.8,0.7-1.8,1-3.1,1c-1.3,0-2.3-0.3-3.1-1S181,63,181,61.9
			c0-0.7,0.2-1.4,0.6-1.9c0.4-0.6,0.9-1,1.6-1.3c-0.6-0.3-1.1-0.7-1.4-1.2s-0.5-1.1-0.5-1.8c0-1.1,0.4-2,1.1-2.7
			c0.7-0.7,1.7-1,2.8-1c1.2,0,2.1,0.3,2.8,1S189.1,54.5,189.1,55.7z M187.8,61.8c0-0.7-0.2-1.3-0.7-1.8s-1.1-0.7-1.8-0.7
			s-1.4,0.2-1.8,0.7c-0.5,0.5-0.7,1.1-0.7,1.8c0,0.8,0.2,1.3,0.7,1.8c0.4,0.4,1.1,0.6,1.9,0.6c0.8,0,1.4-0.2,1.9-0.7
			C187.5,63.2,187.8,62.6,187.8,61.8z M185.2,53.4c-0.7,0-1.2,0.2-1.6,0.6s-0.6,1-0.6,1.7c0,0.7,0.2,1.2,0.6,1.6
			c0.4,0.4,0.9,0.6,1.6,0.6c0.7,0,1.2-0.2,1.6-0.6c0.4-0.4,0.6-1,0.6-1.6c0-0.7-0.2-1.2-0.6-1.6C186.4,53.6,185.9,53.4,185.2,53.4z"
			/>
	</g>
		<g>
		<path class="st1" d="M217.2,52.2v1.4h-0.3c-1.3,0-2.4,0.4-3.1,1.2s-1.2,1.8-1.3,3.2c0.7-0.8,1.7-1.2,2.9-1.2
			c1.2,0,2.1,0.4,2.8,1.2c0.7,0.8,1,1.9,1,3.1c0,1.4-0.4,2.5-1.1,3.3s-1.7,1.2-3,1.2c-1.3,0-2.3-0.5-3.1-1.5c-0.8-1-1.2-2.2-1.2-3.8
			v-0.6c0-2.4,0.5-4.3,1.6-5.6c1-1.3,2.6-1.9,4.6-2H217.2z M215,58.2c-0.6,0-1.1,0.2-1.6,0.5c-0.5,0.3-0.8,0.8-1,1.3v0.6
			c0,1.1,0.2,2,0.7,2.6c0.5,0.7,1.1,1,1.8,1c0.8,0,1.4-0.3,1.8-0.8c0.4-0.6,0.7-1.3,0.7-2.2c0-0.9-0.2-1.6-0.7-2.2
			C216.3,58.4,215.8,58.2,215,58.2z"/>
			<path class="st1" d="M223.6,58h1.3c0.8,0,1.4-0.2,1.9-0.6c0.5-0.4,0.7-1,0.7-1.6c0-1.6-0.8-2.3-2.3-2.3c-0.7,0-1.3,0.2-1.7,0.6
			c-0.4,0.4-0.7,1-0.7,1.7H221c0-1,0.4-1.9,1.2-2.6c0.8-0.7,1.7-1,2.9-1c1.3,0,2.2,0.3,2.9,1s1.1,1.6,1.1,2.8c0,0.6-0.2,1.1-0.6,1.7
			c-0.4,0.5-0.9,0.9-1.5,1.2c0.7,0.2,1.3,0.6,1.7,1.1c0.4,0.5,0.6,1.2,0.6,2c0,1.2-0.4,2.1-1.2,2.8c-0.8,0.7-1.8,1-3,1s-2.3-0.3-3-1
			s-1.2-1.6-1.2-2.7h1.7c0,0.7,0.2,1.3,0.7,1.7s1.1,0.6,1.8,0.6c0.8,0,1.4-0.2,1.9-0.6c0.4-0.4,0.6-1,0.6-1.8c0-0.8-0.2-1.4-0.7-1.8
			c-0.5-0.4-1.2-0.6-2-0.6h-1.3V58z"/>
	</g>
		<g>
		<path class="st1" d="M257.7,61h1.8v1.4h-1.8v3.1H256v-3.1h-6v-1l5.9-9.2h1.8V61z M251.9,61h4.1v-6.5l-0.2,0.4L251.9,61z"/>
			<path class="st1" d="M268.2,61h1.8v1.4h-1.8v3.1h-1.7v-3.1h-6v-1l5.9-9.2h1.8V61z M262.4,61h4.1v-6.5l-0.2,0.4L262.4,61z"/>
	</g>
		<g>
		<path class="st1" d="M299.2,53.1l-5.5,12.3h-1.8l5.5-11.9h-7.2v-1.4h9V53.1z"/>
			<path class="st1" d="M309.7,53.1l-5.5,12.3h-1.8l5.5-11.9h-7.2v-1.4h9V53.1z"/>
	</g>
		<g>
		<path class="st1" d="M337.2,52.2v1.4h-0.3c-1.3,0-2.4,0.4-3.1,1.2c-0.8,0.8-1.2,1.8-1.3,3.2c0.7-0.8,1.7-1.2,2.9-1.2
			c1.2,0,2.1,0.4,2.8,1.2c0.7,0.8,1,1.9,1,3.1c0,1.4-0.4,2.5-1.1,3.3s-1.7,1.2-3,1.2c-1.3,0-2.3-0.5-3.1-1.5c-0.8-1-1.2-2.2-1.2-3.8
			v-0.6c0-2.4,0.5-4.3,1.6-5.6s2.6-1.9,4.6-2H337.2z M335,58.2c-0.6,0-1.1,0.2-1.6,0.5c-0.5,0.3-0.8,0.8-1,1.3v0.6
			c0,1.1,0.2,2,0.7,2.6c0.5,0.7,1.1,1,1.8,1c0.8,0,1.4-0.3,1.8-0.8c0.4-0.6,0.7-1.3,0.7-2.2c0-0.9-0.2-1.6-0.7-2.2
			C336.3,58.4,335.8,58.2,335,58.2z"/>
			<path class="st1" d="M349.1,55.7c0,0.7-0.2,1.3-0.5,1.8c-0.3,0.5-0.8,0.9-1.4,1.2c0.7,0.3,1.2,0.7,1.6,1.3
			c0.4,0.6,0.6,1.2,0.6,1.9c0,1.1-0.4,2.1-1.2,2.7c-0.8,0.7-1.8,1-3.1,1c-1.3,0-2.3-0.3-3.1-1S341,63,341,61.9
			c0-0.7,0.2-1.4,0.6-1.9c0.4-0.6,0.9-1,1.6-1.3c-0.6-0.3-1.1-0.7-1.4-1.2s-0.5-1.1-0.5-1.8c0-1.1,0.4-2,1.1-2.7
			c0.7-0.7,1.7-1,2.8-1c1.2,0,2.1,0.3,2.8,1C348.8,53.7,349.1,54.5,349.1,55.7z M347.8,61.8c0-0.7-0.2-1.3-0.7-1.8s-1.1-0.7-1.8-0.7
			c-0.8,0-1.4,0.2-1.8,0.7c-0.5,0.5-0.7,1.1-0.7,1.8c0,0.8,0.2,1.3,0.7,1.8c0.4,0.4,1.1,0.6,1.9,0.6c0.8,0,1.4-0.2,1.9-0.7
			C347.5,63.2,347.8,62.6,347.8,61.8z M345.2,53.4c-0.7,0-1.2,0.2-1.6,0.6s-0.6,1-0.6,1.7c0,0.7,0.2,1.2,0.6,1.6
			c0.4,0.4,0.9,0.6,1.6,0.6s1.2-0.2,1.6-0.6c0.4-0.4,0.6-1,0.6-1.6c0-0.7-0.2-1.2-0.6-1.6C346.4,53.6,345.9,53.4,345.2,53.4z"/>
	</g>
		<g>
		<path class="st1" d="M373.1,58h1.3c0.8,0,1.4-0.2,1.9-0.6c0.5-0.4,0.7-1,0.7-1.6c0-1.6-0.8-2.3-2.3-2.3c-0.7,0-1.3,0.2-1.7,0.6
			c-0.4,0.4-0.7,1-0.7,1.7h-1.7c0-1,0.4-1.9,1.2-2.6c0.8-0.7,1.7-1,2.9-1c1.3,0,2.2,0.3,2.9,1s1.1,1.6,1.1,2.8
			c0,0.6-0.2,1.1-0.6,1.7s-0.9,0.9-1.5,1.2c0.7,0.2,1.3,0.6,1.7,1.1c0.4,0.5,0.6,1.2,0.6,2c0,1.2-0.4,2.1-1.2,2.8
			c-0.8,0.7-1.8,1-3,1s-2.3-0.3-3-1s-1.2-1.6-1.2-2.7h1.7c0,0.7,0.2,1.3,0.7,1.7s1.1,0.6,1.8,0.6c0.8,0,1.4-0.2,1.9-0.6
			c0.4-0.4,0.6-1,0.6-1.8c0-0.8-0.2-1.4-0.7-1.8c-0.5-0.4-1.2-0.6-2-0.6h-1.3V58z"/>
			<path class="st1" d="M389.1,55.7c0,0.7-0.2,1.3-0.5,1.8c-0.3,0.5-0.8,0.9-1.4,1.2c0.7,0.3,1.2,0.7,1.6,1.3
			c0.4,0.6,0.6,1.2,0.6,1.9c0,1.1-0.4,2.1-1.2,2.7c-0.8,0.7-1.8,1-3.1,1c-1.3,0-2.3-0.3-3.1-1S381,63,381,61.9
			c0-0.7,0.2-1.4,0.6-1.9c0.4-0.6,0.9-1,1.6-1.3c-0.6-0.3-1.1-0.7-1.4-1.2s-0.5-1.1-0.5-1.8c0-1.1,0.4-2,1.1-2.7
			c0.7-0.7,1.7-1,2.8-1c1.2,0,2.1,0.3,2.8,1C388.8,53.7,389.1,54.5,389.1,55.7z M387.8,61.8c0-0.7-0.2-1.3-0.7-1.8s-1.1-0.7-1.8-0.7
			c-0.8,0-1.4,0.2-1.8,0.7c-0.5,0.5-0.7,1.1-0.7,1.8c0,0.8,0.2,1.3,0.7,1.8c0.4,0.4,1.1,0.6,1.9,0.6c0.8,0,1.4-0.2,1.9-0.7
			C387.5,63.2,387.8,62.6,387.8,61.8z M385.2,53.4c-0.7,0-1.2,0.2-1.6,0.6s-0.6,1-0.6,1.7c0,0.7,0.2,1.2,0.6,1.6
			c0.4,0.4,0.9,0.6,1.6,0.6s1.2-0.2,1.6-0.6c0.4-0.4,0.6-1,0.6-1.6c0-0.7-0.2-1.2-0.6-1.6C386.4,53.6,385.9,53.4,385.2,53.4z"/>
	</g>
</g>
	<g id="Layer_2">
	<g>
		<g>
			<path class="st2" d="M17.7,94c3,4.4,11.7,15.7,26.3,19c16.3,3.6,34.6-3.8,47.4-19.3"/>
			<g>
				<path class="st3" d="M99.7,81c-1.7,7.4-2.9,17.2-2,24.4l-7.5-10.2l-12.3-3C84.9,90.3,93.5,85.4,99.7,81z"/>
			</g>
		</g>
	</g>
		<g>
		<g>
			<path class="st4" d="M380,85c2.1,2.9,14,18.6,35,21c14.7,1.7,29.5-3.7,40.5-14.2"/>
			<g>
				<path class="st5" d="M465,80c-2.5,7.1-4.7,16.8-4.5,24l-6.4-10.9l-11.9-4.3C449.4,87.7,458.4,83.8,465,80z"/>
			</g>
		</g>
	</g>
		<g>
	</g>
		<g>
	</g>
		<g>
	</g>
		<g>
	</g>
		<g>
	</g>
		<g>
	</g>
		<g>
	</g>
		<g>
	</g>
		<g>
	</g>
		<g>
	</g>
		<g>
	</g>
		<g>
	</g>
		<g>
	</g>
		<g>
	</g>
		<g>
	</g>
		<g>
	</g>
</g>
</svg>
